<?xml version="1.0" encoding="utf-8"?>
<svg version="1.1" xmlns:xlink="http://www.w3.org/1999/xlink" width="32px" height="29px" xmlns="http://www.w3.org/2000/svg">
  <g transform="matrix(1 0 0 1 -235 -495 )">
    <path d="M 30.367346938775512 5.796223958333332  C 30.853941576630657 5.985026041666668  31.23169267707083 6.255642361111109  31.500600240096038 6.608072916666668  C 32.01280512204882 7.325520833333332  32.128051220488196 8.137369791666668  31.846338535414166 9.043619791666668  L 26.56422569027611 26.149088541666668  C 26.320928371348543 26.954644097222225  25.831132452981194 27.631184895833332  25.09483793517407 28.1787109375  C 24.35854341736695 28.726236979166668  23.574229691876752 29  22.741896758703483 29  L 5.013205282112845 29  C 4.0272108843537415 29  3.076430572228892 28.663302951388893  2.1608643457382954 27.989908854166668  C 1.2452981192476993 27.316514756944443  0.6082432973189277 26.488932291666668  0.24969987995198079 25.507161458333332  C -0.057623049219687875 24.663845486111107  -0.07042817126850741 23.864583333333332  0.2112845138055222 23.109375  C 0.2112845138055222 23.059027777777775  0.2304921968787515 22.889105902777775  0.2689075630252101 22.599609375  C 0.30732292917166865 22.31011284722222  0.33293317326930777 22.077256944444443  0.3457382953181273 21.901041666666668  C 0.3585434173669468 21.800347222222225  0.3393357342937175 21.6650390625  0.28811524609843936 21.4951171875  C 0.23689475790316128 21.3251953125  0.217687074829932 21.202473958333336  0.2304921968787515 21.126953125  C 0.25610244097639057 20.98849826388889  0.30732292917166865 20.856336805555554  0.38415366146458585 20.73046875  C 0.460984393757503 20.60460069444444  0.5666266506602641 20.456705729166664  0.7010804321728692 20.286783854166664  C 0.8355342136854742 20.116861979166664  0.9411764705882353 19.96896701388889  1.0180072028811524 19.843098958333336  C 1.3125250100040018 19.364800347222218  1.600640256102441 18.788953993055554  1.8823529411764706 18.115559895833336  C 2.1640656262505003 17.44216579861111  2.356142456982793 16.86631944444444  2.458583433373349 16.388020833333336  C 2.4969987995198077 16.262152777777775  2.500200080032013 16.07335069444444  2.468187274909964 15.821614583333336  C 2.4361744697879155 15.569878472222223  2.4329731892757103 15.393663194444441  2.458583433373349 15.29296875  C 2.4969987995198077 15.154513888888888  2.6058423369347743 14.978298611111112  2.7851140456182475 14.764322916666664  C 2.9643857543017207 14.550347222222223  3.073229291716687 14.405598958333332  3.1116446578631454 14.330078125  C 3.3805522208883554 13.876953125  3.6494597839135654 13.297960069444445  3.9183673469387754 12.593098958333332  C 4.187274909963985 11.88823784722222  4.34733893557423 11.32183159722222  4.398559423769508 10.893880208333332  C 4.411364545818327 10.780598958333332  4.395358143257303 10.579210069444445  4.350540216086435 10.289713541666668  C 4.305722288915566 10.000217013888888  4.308923569427772 9.824001736111109  4.3601440576230495 9.761067708333332  C 4.411364545818327 9.597439236111109  4.552220888355342 9.405490451388886  4.782713085234094 9.185221354166668  C 5.013205282112845 8.964952256944445  5.15406162464986 8.823350694444445  5.205282112845138 8.760416666666668  C 5.44857943177271 8.43315972222222  5.720688275310125 7.9013671875  6.021608643457383 7.1650390625  C 6.322529011604642 6.4287109375  6.498599439775911 5.821397569444444  6.549819927971188 5.343098958333332  C 6.562625050020008 5.242404513888885  6.5434173669467794 5.081922743055553  6.492196878751501 4.861653645833332  C 6.440976390556223 4.641384548611109  6.428171268507404 4.474609375  6.453781512605042 4.361328125  C 6.4793917567026815 4.260633680555553  6.53701480592237 4.147352430555553  6.626650660264105 4.021484375  C 6.716286514605843 3.895616319444444  6.831532613045218 3.7508680555555527  6.9723889555822325 3.587239583333332  C 7.113245298119248 3.4236111111111085  7.222088835534214 3.2914496527777763  7.298919567827131 3.190755208333332  C 7.401360544217688 3.039713541666668  7.507002801120449 2.847764756944444  7.615846338535414 2.614908854166668  C 7.72468987595038 2.382052951388885  7.820728291316527 2.161783854166668  7.903961584633853 1.9541015625  C 7.987194877951181 1.7464192708333321  8.089635854341738 1.5198567708333321  8.211284513805522 1.2744140625  C 8.332933173269309 1.0289713541666679  8.457783113245299 0.8275824652777763  8.585834333733493 0.6702473958333323  C 8.71388555422169 0.512912326388885  8.883553421368548 0.3650173611111086  9.09483793517407 0.2265625  C 9.306122448979593 0.08810763888888495  9.536614645858345 0.015733506944444087  9.786314525810324 0.00944010416666774  C 10.036014405762305 0.0031467013888849538  10.34013605442177 0.03776041666666774  10.698679471788715 0.11328125  L 10.679471788715487 0.169921875  C 11.166066426570628 0.056640625  11.492597038815527 0  11.65906362545018 0  L 26.27611044417767 0  C 27.22368947579032 0  27.95358143257303 0.3524305555555527  28.46578631452581 1.0572916666666679  C 28.977991196478595 1.7621527777777763  29.09323729491797 2.580295138888885  28.81152460984394 3.51171875  L 23.54861944777911 20.6171875  C 23.087635054021607 22.115017361111107  22.629851940776312 23.0810546875  22.175270108043218 23.515299479166668  C 21.720688275310128 23.949544270833332  20.897959183673468 24.166666666666668  19.707082833133253 24  L 3.015606242496999 24  C 2.6698679471788718 24.166666666666668  2.4265706282513007 24.261067708333332  2.2857142857142856 24.449869791666668  C 2.144857943177271 24.651258680555557  2.1384553821528614 24.921875  2.2665066026410563 25.26171875  C 2.573829531812725 26.142795138888893  3.495798319327731 26.583333333333332  5.032412965186074 26.583333333333332  L 22.76110444177671 26.583333333333332  C 23.13245298119248 26.583333333333332  23.490996398559425 26.485785590277775  23.836734693877553 26.290690104166668  C 24.182472989195677 26.095594618055557  24.40656262505002 25.834418402777775  24.509003601440575 25.507161458333332  L 30.271308523409363 6.872395833333332  C 30.360944377751103 6.595486111111109  30.39295718287315 6.236762152777777  30.367346938775512 5.796223958333332  Z M 11.466986794717887 5.4375  L 11.063625450180073 6.645833333333332  C 11.012404961984794 6.809461805555553  11.025210084033613 6.951063368055553  11.10204081632653 7.070638020833332  C 11.178871548619448 7.190212673611109  11.306922769107645 7.25  11.486194477791116 7.25  L 23.164465786314526 7.25  C 23.33093237294918 7.25  23.49419767907163 7.190212673611109  23.654261704681872 7.070638020833332  C 23.81432573029212 6.951063368055553  23.91996798719488 6.809461805555553  23.971188475390157 6.645833333333332  L 24.37454981992797 5.4375  C 24.42577030812325 5.273871527777777  24.41296518607443 5.132269965277777  24.33613445378151 5.0126953125  C 24.259303721488596 4.8931206597222205  24.131252501000404 4.833333333333332  23.951980792316927 5  L 12.273709483793517 5  C 12.107242897158864 4.833333333333332  11.943977591036415 4.8931206597222205  11.78391356542617 5.0126953125  C 11.623849539815927 5.132269965277777  11.518207282913167 5.273871527777777  11.466986794717887 5.4375  Z M 9.872749099639856 10.270833333333332  L 9.46938775510204 11.479166666666668  C 9.418167266906764 11.642795138888888  9.430972388955583 11.784396701388888  9.5078031212485 11.903971354166668  C 9.584633853541417 12.023546006944445  9.712685074029611 12.083333333333332  9.891956782713086 12  L 21.570228091236494 12  C 21.73669467787115 12.083333333333332  21.8999599839936 12.023546006944445  22.06002400960384 11.903971354166668  C 22.22008803521409 11.784396701388888  22.325730292116848 11.642795138888888  22.376950780312125 11.479166666666668  L 22.78031212484994 10.270833333333332  C 22.83153261304522 10.107204861111109  22.818727490996398 9.965603298611109  22.741896758703483 9.846028645833332  C 22.665066026410564 9.726453993055555  22.53701480592237 9.666666666666668  22.357743097238895 10  L 10.679471788715487 10  C 10.513005202080834 9.666666666666668  10.349739895958384 9.726453993055555  10.18967587034814 9.846028645833332  C 10.029611844737897 9.965603298611109  9.923969587835135 10.107204861111109  9.872749099639856 10.270833333333332  Z " fill-rule="nonzero" fill="#333333" stroke="none" fill-opacity="0.8941176470588236" transform="matrix(1 0 0 1 235 495 )" />
  </g>
</svg>