<?xml version="1.0" encoding="utf-8"?>
<svg version="1.1" xmlns:xlink="http://www.w3.org/1999/xlink" width="21px" height="17px" xmlns="http://www.w3.org/2000/svg">
  <g transform="matrix(1 0 0 1 -263 -662 )">
    <path d="M 9.452524038461538 1.4585091420534462  C 9.612379807692307 1.6099390529770266  9.692307692307693 1.7892639474917944  10 1.9964838255977493  L 10 15.00351617440225  C 9.692307692307693 15.210736052508203  9.612379807692307 15.390060947022972  9.452524038461538 15.541490857946554  C 9.29266826923077 15.692920768870136  9.103365384615385 15.768635724331926  8.884615384615385 15.768635724331926  C 8.665865384615385 15.768635724331926  8.4765625 15.692920768870136  8.316706730769232 15.541490857946554  L 4.1141826923076925 11.560478199718705  L 0.8076923076923077 11.560478199718705  C 0.5889423076923078 11.560478199718705  0.39963942307692313 11.484763244256914  0.23978365384615383 11.333333333333334  C 0.07992788461538461 11.18190342240975  0 11.002578527894983  0 10.79535864978903  L 0 6.20464135021097  C 0 5.997421472105016  0.07992788461538461 5.818096577590246  0.23978365384615383 5.666666666666667  C 0.39963942307692313 5.515236755743083  0.5889423076923078 5.439521800281295  0.8076923076923077 5.439521800281295  L 4.1141826923076925 5.439521800281295  L 8.316706730769232 1.4585091420534462  C 8.4765625 1.307079231129864  8.665865384615385 1.2313642756680738  8.884615384615385 1.2313642756680738  C 9.103365384615385 1.2313642756680738  9.29266826923077 1.307079231129864  9.452524038461538 1.4585091420534462  Z M 14.002103365384615 6.80239099859353  C 14.359675480769232 7.328410689170183  14.538461538461538 7.894280356305671  14.538461538461538 8.5  C 14.538461538461538 9.105719643694327  14.359675480769232 9.669596812001876  14.002103365384615 10.191631504922645  C 13.64453125 10.71366619784341  13.171274038461538 11.08626347866854  12.582331730769232 11.309423347398031  C 12.498197115384619 11.349273323956867  12.393028846153847 11.369198312236286  12.266826923076923 11.369198312236286  C 12.048076923076925 11.369198312236286  11.858774038461538 11.295475855602437  11.698918269230768 11.148030942334739  C 11.539062500000002 11.000586029067039  11.459134615384615 10.819268635724331  11.459134615384615 10.60407876230661  C 11.459134615384615 10.436708860759493  11.509615384615385 10.29524144397562  11.610576923076923 10.179676511954993  C 11.711538461538462 10.064111579934364  11.833533653846155 9.964486638537272  11.9765625 9.880801687763714  C 12.119591346153848 9.797116736990155  12.262620192307693 9.705461790904828  12.405649038461538 9.605836849507737  C 12.548677884615385 9.506211908110641  12.670673076923077 9.362751992498827  12.771634615384615 9.175457102672292  C 12.872596153846155 8.988162212845756  12.923076923076923 8.763009845288325  12.923076923076923 8.5  C 12.923076923076923 8.236990154711675  12.872596153846155 8.011837787154242  12.771634615384615 7.8245428973277065  C 12.670673076923077 7.637248007501171  12.548677884615385 7.493788091889357  12.405649038461538 7.394163150492265  C 12.262620192307693 7.294538209095172  12.119591346153848 7.202883263009846  11.9765625 7.119198312236287  C 11.833533653846155 7.035513361462728  11.711538461538462 6.935888420065634  11.610576923076923 6.820323488045007  C 11.509615384615385 6.704758556024378  11.459134615384615 6.563291139240506  11.459134615384615 6.39592123769339  C 11.459134615384615 6.180731364275667  11.539062500000002 5.999413970932958  11.698918269230768 5.8519690576652605  C 11.858774038461538 5.7045241443975625  12.048076923076925 5.630801687763713  12.266826923076923 5.630801687763713  C 12.393028846153847 5.630801687763713  12.498197115384619 5.650726676043131  12.582331730769232 5.690576652601969  C 13.171274038461538 5.905766526019692  13.64453125 6.276371308016879  14.002103365384615 6.80239099859353  Z M 16.696514423076923 5.122714486638537  C 17.411658653846157 6.154828879512423  17.76923076923077 7.280590717299578  17.76923076923077 8.5  C 17.76923076923077 9.719409282700422  17.411658653846157 10.845171120487574  16.696514423076923 11.87728551336146  C 15.981370192307695 12.909399906235349  15.03485576923077 13.66057196436943  13.856971153846155 14.130801687763714  C 13.747596153846157 14.170651664322548  13.642427884615385 14.190576652601969  13.541466346153845 14.190576652601969  C 13.314302884615385 14.190576652601969  13.12079326923077 14.114861697140178  12.9609375 13.963431786216596  C 12.801081730769232 13.812001875293014  12.721153846153847 13.632676980778246  12.721153846153845 13.425457102672292  C 12.721153846153847 13.114627285513361  12.885216346153847 12.879512423816221  13.213341346153845 12.720112517580873  C 13.684495192307695 12.488982653539615  14.004206730769232 12.31364275668073  14.172475961538462 12.19409282700422  C 14.795072115384619 11.763713080168776  15.28094951923077 11.22374589779653  15.630108173076923 10.574191279887481  C 15.979266826923077 9.924636661978433  16.153846153846153 9.233239568682606  16.153846153846153 8.5  C 16.153846153846153 7.766760431317392  15.979266826923077 7.075363338021565  15.630108173076923 6.425808720112517  C 15.28094951923077 5.776254102203469  14.795072115384619 5.236286919831224  14.172475961538462 4.805907172995781  C 14.004206730769232 4.68635724331927  13.684495192307695 4.511017346460384  13.213341346153845 4.279887482419127  C 12.885216346153847 4.120487576183777  12.721153846153847 3.885372714486639  12.721153846153845 3.5745428973277065  C 12.721153846153847 3.3673230192217516  12.801081730769232 3.187998124706984  12.9609375 3.036568213783404  C 13.12079326923077 2.885138302859821  13.310096153846155 2.809423347398031  13.528846153846155 2.809423347398031  C 13.638221153846155 2.809423347398031  13.747596153846157 2.829348335677447  13.856971153846155 2.869198312236288  C 15.03485576923077 3.3394280356305663  15.981370192307695 4.090600093764648  16.696514423076923 5.122714486638537  Z M 19.397235576923077 3.4490154711673697  C 20.465745192307693 4.983239568682606  21 6.666901078293481  21 8.5  C 21 10.333098921706515  20.465745192307693 12.01676043131739  19.397235576923077 13.55098452883263  C 18.328725961538463 15.085208626347868  16.906850961538463 16.214955461790904  15.131610576923077 16.940225035161742  C 15.022235576923078 16.98007501172058  14.912860576923077 17  14.803485576923077 17  C 14.584735576923077 17  14.395432692307693 16.92428504453821  14.235576923076923 16.772855133614627  C 14.075721153846157 16.621425222691045  13.995793269230768 16.442100328176277  13.995793269230768 16.23488045007032  C 13.995793269230768 15.947960618846693  14.159855769230768 15.712845757149553  14.487980769230768 15.529535864978904  C 14.546875 15.497655883731833  14.641526442307693 15.455813408345055  14.771935096153845 15.404008438818565  C 14.902343750000002 15.352203469292078  14.996995192307695 15.310360993905299  15.055889423076923 15.278481012658228  C 15.442908653846155 15.079231129864041  15.787860576923077 14.87599624941397  16.090745192307693 14.668776371308017  C 17.125600961538463 13.943506797937177  17.93329326923077 13.03891233005157  18.513822115384613 11.954992967651195  C 19.094350961538463 10.87107360525082  19.384615384615387 9.719409282700422  19.384615384615387 8.5  C 19.384615384615387 7.280590717299578  19.094350961538463 6.12892639474918  18.513822115384613 5.0450070323488045  C 17.93329326923077 3.961087669948429  17.125600961538463 3.0564932020628213  16.090745192307693 2.331223628691983  C 15.787860576923077 2.124003750586028  15.442908653846155 1.920768870135957  15.055889423076923 1.721518987341772  C 14.996995192307695 1.6896390060947009  14.902343750000002 1.6477965307079216  14.771935096153845 1.5959915611814348  C 14.641526442307693 1.5441865916549444  14.546875 1.5023441162681652  14.487980769230768 1.470464135021098  C 14.159855769230768 1.2871542428504426  13.995793269230768 1.0520393811533042  13.995793269230768 0.7651195499296772  C 13.995793269230768 0.5578996718237205  14.075721153846157 0.37857477730895284  14.235576923076923 0.22714486638537246  C 14.395432692307693 0.07571495546179019  14.584735576923077 0  14.803485576923077 0  C 14.912860576923077 0  15.022235576923078 0.019924988279417577  15.131610576923077 0.059774964838256506  C 16.906850961538463 0.7850445382090929  18.328725961538463 1.9147913736521311  19.397235576923077 3.4490154711673697  Z " fill-rule="nonzero" fill="#000000" stroke="none" transform="matrix(1 0 0 1 263 662 )" />
  </g>
</svg>