<?xml version="1.0" encoding="utf-8"?>
<svg version="1.1" xmlns:xlink="http://www.w3.org/1999/xlink" width="14px" height="17px" xmlns="http://www.w3.org/2000/svg">
  <g transform="matrix(1 0 0 1 -366 -663 )">
    <path d="M 13.653645833333332 0.265625  C 13.88454861111111 0.4427083333333308  14 0.6524122807017522  14 0.894736842105264  L 14 16.105263157894736  C 14 16.347587719298243  13.88454861111111 16.557291666666664  13.653645833333332 16.734375  C 13.422743055555557 16.911458333333336  13.149305555555557 17  12.833333333333332 17  C 12.517361111111112 17  12.243923611111112 16.911458333333336  12.013020833333332 16.734375  L 5.942708333333334 12.078947368421053  L 1.1666666666666665 12.078947368421053  C 0.8506944444444445 12.078947368421053  0.5772569444444444 11.990405701754387  0.34635416666666663 11.813322368421053  C 0.1154513888888889 11.636239035087717  0 11.426535087719298  0 11.184210526315791  L 0 5.81578947368421  C 0 5.573464912280699  0.1154513888888889 5.363760964912278  0.34635416666666663 5.186677631578948  C 0.5772569444444444 5.009594298245613  0.8506944444444445 4.921052631578948  1.1666666666666665 4.921052631578948  L 5.942708333333334 4.921052631578948  L 12.013020833333332 0.265625  C 12.243923611111112 0.08854166666666541  12.517361111111112 0  12.833333333333332 0  C 13.149305555555557 0  13.422743055555557 0.08854166666666541  13.653645833333332 0.265625  Z " fill-rule="nonzero" fill="#fffffe" stroke="none" fill-opacity="0.996078431372549" transform="matrix(1 0 0 1 366 663 )" />
  </g>
</svg>