<?xml version="1.0" encoding="utf-8"?>
<svg version="1.1" xmlns:xlink="http://www.w3.org/1999/xlink" width="158px" height="65px" xmlns="http://www.w3.org/2000/svg">
  <g transform="matrix(1 0 0 1 -246 -745 )">
    <path d="M 248 755  A 8 8 0 0 1 256 747 L 394 747  A 8 8 0 0 1 402 755 L 402 800  A 8 8 0 0 1 394 808 L 256 808  A 8 8 0 0 1 248 800 L 248 755  Z " fill-rule="nonzero" fill="#ffffff" stroke="none" />
    <path d="M 247 755  A 9 9 0 0 1 256 746 L 394 746  A 9 9 0 0 1 403 755 L 403 800  A 9 9 0 0 1 394 809 L 256 809  A 9 9 0 0 1 247 800 L 247 755  Z " stroke-width="2" stroke="#797979" fill="none" stroke-opacity="0.22745098039215686" />
  </g>
</svg>