<?xml version="1.0" encoding="utf-8"?>
<svg version="1.1" xmlns:xlink="http://www.w3.org/1999/xlink" width="44px" height="27px" xmlns="http://www.w3.org/2000/svg">
  <g transform="matrix(1 0 0 1 -303 -764 )">
    <path d="M 6 1.3500000000000012  L 6 16  L 42.625 16  C 42.997395833333336 16.2  43.319661458333336 16.33359375  43.591796875 16.60078125  C 43.86393229166667 16.86796875  44 17.184374999999996  44 17.55  L 44 27  L 38.5 27  L 38.5 21.6  L 5.5 21.6  L 5.5 27  L 0 27  L 0 1.3500000000000012  C 0 0.984374999999998  0.13606770833333331 0.667968749999998  0.408203125 0.4007812500000012  C 0.6803385416666667 0.1335937499999984  1.0026041666666667 0  1.375 0  L 4.125 0  C 4.497395833333334 0  4.819661458333334 0.1335937499999984  5.091796875 0.4007812500000012  C 5.363932291666667 0.667968749999998  5.5 0.984374999999998  6 1.3500000000000012  Z M 16.263671875 13.267968750000001  C 17.337890625 12.213281250000001  17.875 10.940624999999999  17.875 9.45  C 17.875 7.959374999999997  17.337890625 6.686718750000001  16.263671875 5.632031250000001  C 15.189453125 4.577343750000001  13.893229166666668 4.050000000000001  12.375 4.050000000000001  C 10.856770833333334 4.050000000000001  9.560546875 4.577343750000001  8.486328125 5.632031250000001  C 7.412109375 6.686718750000001  6.875 7.959374999999997  6.875 9.45  C 6.875 10.940624999999999  7.412109375 12.213281250000001  8.486328125 13.267968750000001  C 9.560546875 14.322656250000001  10.856770833333334 14.850000000000001  12.375 14.850000000000001  C 13.893229166666668 14.850000000000001  15.189453125 14.322656250000001  16.263671875 13.267968750000001  Z M 19.25 14.850000000000001  L 44 14.850000000000001  L 44 13.5  C 44 11.264062500000001  43.1943359375 9.355078124999999  41.5830078125 7.773046874999999  C 39.9716796875 6.191015624999999  38.02734375 5.399999999999999  35.75 5.399999999999999  L 20.625 5.399999999999999  C 20.252604166666668 5.399999999999999  19.930338541666668 5.533593749999997  19.658203125 5.80078125  C 19.386067708333336 6.0679687499999995  19.25 6.3843749999999995  19.25 6.75  L 19.25 14.850000000000001  Z " fill-rule="nonzero" fill="#000000" stroke="none" fill-opacity="0.4980392156862745" transform="matrix(1 0 0 1 303 764 )" />
  </g>
</svg>