<?xml version="1.0" encoding="utf-8"?>
<svg version="1.1" xmlns:xlink="http://www.w3.org/1999/xlink" width="118px" height="122px" xmlns="http://www.w3.org/2000/svg">
  <g transform="matrix(1 0 0 1 -266 -266 )">
    <path d="M 95.65046838407494 76.19039642657732  C 97.74609679937551 71.35399218313792  98.79391100702577 66.2791736460078  98.79391100702577 60.96594081518705  C 98.79391100702577 55.65270798436627  97.74609679937551 50.577889447236174  95.65046838407494 45.74148520379676  C 93.5548399687744 40.90508096035734  90.72228727556596 36.72715428996835  87.15281030444964 33.20770519262981  C 83.58333333333334 29.688256095291266  79.346018735363 26.895402940629058  74.44086651053864 24.829145728643223  C 69.53571428571429 22.762888516657345  64.3887587822014 21.729759910664438  59 21.729759910664438  C 53.61124121779859 21.729759910664438  48.464285714285715 22.762888516657345  43.55913348946136 24.829145728643223  C 38.653981264637004 26.895402940629058  34.41666666666667 29.688256095291266  30.847189695550348 33.20770519262981  C 27.27771272443404 36.72715428996835  24.44516003122561 40.90508096035734  22.349531615925056 45.74148520379676  C 20.253903200624514 50.577889447236174  19.206088992974237 55.65270798436627  19.206088992974237 60.96594081518705  C 19.206088992974237 66.2791736460078  20.253903200624514 71.35399218313792  22.349531615925056 76.19039642657732  C 24.44516003122561 81.02680067001675  27.27771272443404 85.20472734040573  30.847189695550348 88.72417643774428  C 34.41666666666667 92.24362553508283  38.653981264637004 95.03647868974502  43.55913348946136 97.10273590173088  C 48.464285714285715 99.16899311371672  53.61124121779859 100.20212171970965  59 100.20212171970965  C 64.3887587822014 100.20212171970965  69.53571428571429 99.16899311371672  74.44086651053864 97.10273590173088  C 79.346018735363 95.03647868974502  83.58333333333334 92.24362553508283  87.15281030444964 88.72417643774428  C 90.72228727556596 85.20472734040573  93.5548399687744 81.02680067001675  95.65046838407494 76.19039642657732  Z M 117.58548009367682 77.85929648241206  C 118 78.40424343941932  118.09211553473848 79.06272101246975  117.86182669789227 79.83472920156336  C 117.67759562841532 80.51591289782245  117.21701795472288 80.97003536199514  116.48009367681499 81.19709659408153  L 96 87.73646007816862  L 96 108.58068118369626  C 96.30679156908666 109.30727712637261  96.00741608118658 109.89763632979712  95.4086651053864 110.35175879396985  C 94.71779859484776 110.80588125814258  94.04996096799377 110.8967057509771  93.40515222482435 110.62423227247348  L 73.23185011709602 104.2211055276382  L 60.796252927400474 121.11446119486321  C 60.335675253708054 121.70482039828775  59.73692427790789 122  59 122  C 58.26307572209212 122  57.66432474629197 121.70482039828775  57.203747072599526 121.11446119486321  L 44.76814988290398 104.2211055276382  L 24.594847775175644 110.62423227247348  C 23.95003903200624 110.8967057509771  23.282201405152225 110.80588125814258  22.59133489461358 110.35175879396985  C 21.992583918813427 109.89763632979712  21.69320843091335 109.30727712637261  22 108.58068118369626  L 22 87.73646007816862  L 1.5199063231850118 81.19709659408153  C 0.7829820452771269 80.97003536199514  0.3224043715846993 80.51591289782245  0.13817330210772832 79.83472920156336  C -0.09211553473848523 79.06272101246975  0 78.40424343941932  0.41451990632318503 77.85929648241206  L 12.850117096018735 60.96594081518705  L 0.41451990632318503 44.07258514796203  C 0 43.4822259445375  -0.09211553473848523 42.82374837148705  0.13817330210772832 42.09715242881072  C 0.3224043715846993 41.41596873255165  0.7829820452771269 40.96184626837893  1.5199063231850118 40.73478503629258  L 22 34.19542155220547  L 22 13.351200446677835  C 21.69320843091335 12.624604504001478  21.992583918813427 12.034245300576943  22.59133489461358 11.580122836404238  C 23.282201405152225 11.12600037223152  23.95003903200624 11.035175879396979  24.594847775175644 11.307649357900615  L 44.76814988290398 17.710776102735895  L 57.203747072599526 0.8174204355108823  C 57.61826697892272 0.2724734785036229  58.21701795472288 0  59 0  C 59.78298204527713 0  60.38173302107729 0.2724734785036229  60.796252927400474 0.8174204355108823  L 73.23185011709602 17.710776102735895  L 93.40515222482435 11.307649357900615  C 94.04996096799377 11.035175879396979  94.71779859484776 11.12600037223152  95.4086651053864 11.580122836404238  C 96.00741608118658 12.034245300576943  96.30679156908666 12.624604504001478  96 13.351200446677835  L 96 34.19542155220547  L 116.48009367681499 40.73478503629258  C 117.21701795472288 40.96184626837893  117.67759562841532 41.41596873255165  117.86182669789227 42.09715242881072  C 118.09211553473848 42.82374837148705  118 43.4822259445375  117.58548009367682 44.07258514796203  L 105.14988290398126 60.96594081518705  L 117.58548009367682 77.85929648241206  Z " fill-rule="nonzero" fill="#f5e175" stroke="none" fill-opacity="0.19607843137254902" transform="matrix(1 0 0 1 266 266 )" />
  </g>
</svg>