<?xml version="1.0" encoding="utf-8"?>
<svg version="1.1" xmlns:xlink="http://www.w3.org/1999/xlink" width="22px" height="31px" xmlns="http://www.w3.org/2000/svg">
  <g transform="matrix(1 0 0 1 -349 -289 )">
    <path d="M 15.0068359375 7.225260416666665  C 15.5439453125 7.736545138888888  15.8125 8.34201388888889  15.8125 9.041666666666666  C 15.8125 9.216579861111107  15.744466145833334 9.367947048611107  15.6083984375 9.495768229166666  C 15.472330729166668 9.62358940972222  15.311197916666668 9.6875  15.125 9.6875  C 14.938802083333334 9.6875  14.777669270833334 9.62358940972222  14.6416015625 9.495768229166666  C 14.505533854166668 9.367947048611107  14.4375 9.216579861111107  14.4375 9.041666666666666  C 14.4375 8.422743055555554  14.05078125 7.945095486111108  13.27734375 7.608723958333335  C 12.50390625 7.272352430555554  11.744791666666668 7.104166666666665  11 7.104166666666665  C 10.813802083333334 7.104166666666665  10.652669270833334 7.040256076388888  10.5166015625 6.912434895833335  C 10.380533854166668 6.784613715277773  10.312500000000002 6.633246527777773  10.3125 6.458333333333335  C 10.312500000000002 6.283420138888888  10.380533854166668 6.132052951388888  10.5166015625 6.004231770833335  C 10.652669270833334 5.876410590277773  10.813802083333334 5.8125  11 5.8125  C 11.716145833333334 5.8125  12.4287109375 5.920138888888888  13.1376953125 6.135416666666665  C 13.8466796875 6.350694444444443  14.4697265625 6.713975694444443  15.0068359375 7.225260416666665  Z M 17.7890625 12.674479166666666  C 18.763020833333336 11.61154513888889  19.25 10.40060763888889  19.25 9.041666666666666  C 19.25 8.072916666666666  19.0029296875 7.17144097222222  18.5087890625 6.337239583333335  C 18.0146484375 5.503038194444443  17.3701171875 4.820203993055554  16.5751953125 4.288736979166665  C 15.7802734375 3.7572699652777737  14.8994140625 3.3401692708333344  13.9326171875 3.0374348958333344  C 12.9658203125 2.7347005208333344  11.98828125 2.5833333333333344  11 2.5833333333333344  C 10.01171875 2.5833333333333344  9.0341796875 2.7347005208333344  8.0673828125 3.0374348958333344  C 7.1005859375 3.3401692708333344  6.2197265625 3.7572699652777737  5.4248046875 4.288736979166665  C 4.6298828125 4.820203993055554  3.9853515625 5.503038194444443  3.4912109375 6.337239583333335  C 2.9970703125 7.17144097222222  2.75 8.072916666666666  2.75 9.041666666666666  C 2.75 10.40060763888889  3.236979166666667 11.61154513888889  4.2109375 12.674479166666666  C 4.354166666666667 12.82248263888889  4.572591145833334 13.04448784722222  4.8662109375 13.340494791666666  C 5.159830729166667 13.63650173611111  5.378255208333334 13.858506944444443  5.521484375 14.006510416666666  C 7.354817708333334 16.065104166666668  8.364583333333334 18.06987847222222  8.55078125 20.020833333333332  L 13.44921875 20.020833333333332  C 13.635416666666668 18.06987847222222  14.645182291666668 16.065104166666668  16.478515625 14.006510416666666  C 16.621744791666668 13.858506944444443  16.840169270833336 13.63650173611111  17.1337890625 13.340494791666666  C 17.427408854166668 13.04448784722222  17.645833333333336 12.82248263888889  17.7890625 12.674479166666666  Z M 21.0439453125 5.318033854166665  C 21.681315104166668 6.468424479166665  22 7.709635416666665  22 9.041666666666666  C 22 11.12717013888889  21.262369791666668 12.930121527777777  19.787109375 14.450520833333334  C 19.142578125000004 15.109809027777777  18.609049479166668 15.695095486111107  18.1865234375 16.206380208333332  C 17.763997395833336 16.717664930555554  17.337890625 17.360134548611107  16.908203125 18.1337890625  C 16.478515625 18.907443576388886  16.235026041666668 19.630642361111107  16.177734375 20.303385416666668  C 16.850911458333336 20.68012152777778  17.1875 21.231770833333332  17.1875 21.958333333333332  C 17.1875 22.45616319444444  17.008463541666668 22.88671875  16.650390625 23.25  C 17.008463541666668 23.61328125  17.1875 24.043836805555554  17.1875 24.541666666666664  C 17.1875 25.241319444444446  16.865234375 25.786241319444446  16.220703125 26.176432291666664  C 16.406901041666664 26.485894097222218  16.5 26.802083333333336  16.5 27.125  C 16.5 27.74392361111111  16.2744140625 28.221571180555554  15.8232421875 28.557942708333336  C 15.3720703125 28.89431423611111  14.817057291666668 29.0625  14.158203125 29.0625  C 13.871744791666668 29.65451388888889  13.442057291666668 30.125434027777782  12.869140625 30.475260416666664  C 12.296223958333334 30.825086805555554  11.673177083333334 31  11 31  C 10.326822916666668 31  9.703776041666668 30.825086805555554  9.130859375 30.475260416666664  C 8.557942708333334 30.125434027777782  8.128255208333334 29.65451388888889  7.841796875 29.0625  C 7.182942708333334 29.0625  6.6279296875 28.89431423611111  6.1767578125 28.557942708333336  C 5.7255859375 28.221571180555554  5.5 27.74392361111111  5.5 27.125  C 5.5 26.802083333333336  5.593098958333334 26.485894097222218  5.779296875 26.176432291666664  C 5.134765625 25.786241319444446  4.8125 25.241319444444446  4.8125 24.541666666666664  C 4.8125 24.043836805555554  4.991536458333334 23.61328125  5.349609375 23.25  C 4.991536458333334 22.88671875  4.8125 22.45616319444444  4.8125 21.958333333333332  C 4.8125 21.231770833333332  5.149088541666667 20.68012152777778  5.822265625 20.303385416666668  C 5.764973958333334 19.630642361111107  5.521484375 18.907443576388886  5.091796875 18.1337890625  C 4.662109375000001 17.360134548611107  4.236002604166667 16.717664930555554  3.8134765625 16.206380208333332  C 3.3909505208333335 15.695095486111107  2.857421875 15.109809027777777  2.212890625 14.450520833333334  C 0.7376302083333333 12.930121527777777  0 11.12717013888889  0 9.041666666666666  C 0 7.709635416666665  0.3186848958333333 6.468424479166665  0.9560546875 5.318033854166665  C 1.5934244791666667 4.167643229166665  2.431315104166667 3.2123480902777737  3.4697265625 2.4521484375  C 4.508138020833334 1.6919487847222197  5.6826171875 1.0932074652777737  6.9931640625 0.6559244791666655  C 8.303710937500002 0.21864149305555403  9.639322916666668 0  11 0  C 12.360677083333334 0  13.6962890625 0.21864149305555403  15.0068359375 0.6559244791666655  C 16.3173828125 1.0932074652777737  17.491861979166668 1.6919487847222197  18.5302734375 2.4521484375  C 19.568684895833336 3.2123480902777737  20.406575520833336 4.167643229166665  21.0439453125 5.318033854166665  Z " fill-rule="nonzero" fill="#999999" stroke="none" fill-opacity="0.996078431372549" transform="matrix(1 0 0 1 349 289 )" />
  </g>
</svg>