<?xml version="1.0" encoding="utf-8"?>
<svg version="1.1" xmlns:xlink="http://www.w3.org/1999/xlink" width="13px" height="13px" viewBox="235 448  13 13" xmlns="http://www.w3.org/2000/svg">
  <path d="M 241.5 448  C 245.14 448  248 450.86  248 454.5  C 248 458.14  245.14 461  241.5 461  C 237.86 461  235 458.14  235 454.5  C 235 450.86  237.86 448  241.5 448  Z " fill-rule="nonzero" fill="#ffffff" stroke="none" />
  <path d="M 241.5 448.5  C 244.86 448.5  247.5 451.14  247.5 454.5  C 247.5 457.86  244.86 460.5  241.5 460.5  C 238.14 460.5  235.5 457.86  235.5 454.5  C 235.5 451.14  238.14 448.5  241.5 448.5  Z " stroke-width="1" stroke="#797979" fill="none" />
  <path d="M 241.5 457.75  C 239.68 457.75  238.25 456.32  238.25 454.5  C 238.25 452.68  239.68 451.25  241.5 451.25  C 243.32 451.25  244.75 452.68  244.75 454.5  C 244.75 456.32  243.32 457.75  241.5 457.75  " fill-rule="nonzero" fill="#797979" stroke="none" />
</svg>