<?xml version="1.0" encoding="utf-8"?>
<svg version="1.1" xmlns:xlink="http://www.w3.org/1999/xlink" width="13px" height="13px" viewBox="337 448  13 13" xmlns="http://www.w3.org/2000/svg">
  <path d="M 343.5 448  C 347.14 448  350 450.86  350 454.5  C 350 458.14  347.14 461  343.5 461  C 339.86 461  337 458.14  337 454.5  C 337 450.86  339.86 448  343.5 448  Z " fill-rule="nonzero" fill="#f0f0f0" stroke="none" />
  <path d="M 343.5 448.5  C 346.86 448.5  349.5 451.14  349.5 454.5  C 349.5 457.86  346.86 460.5  343.5 460.5  C 340.14 460.5  337.5 457.86  337.5 454.5  C 337.5 451.14  340.14 448.5  343.5 448.5  Z " stroke-width="1" stroke="#797979" fill="none" />
  <path d="M 343.5 457.75  C 341.68 457.75  340.25 456.32  340.25 454.5  C 340.25 452.68  341.68 451.25  343.5 451.25  C 345.32 451.25  346.75 452.68  346.75 454.5  C 346.75 456.32  345.32 457.75  343.5 457.75  " fill-rule="nonzero" fill="#797979" stroke="none" />
</svg>