<?xml version="1.0" encoding="utf-8"?>
<svg version="1.1" xmlns:xlink="http://www.w3.org/1999/xlink" width="13px" height="13px" viewBox="235 1405  13 13" xmlns="http://www.w3.org/2000/svg">
  <path d="M 241.5 1405  C 245.14 1405  248 1407.86  248 1411.5  C 248 1415.14  245.14 1418  241.5 1418  C 237.86 1418  235 1415.14  235 1411.5  C 235 1407.86  237.86 1405  241.5 1405  Z " fill-rule="nonzero" fill="#f0f0f0" stroke="none" />
  <path d="M 241.5 1405.5  C 244.86 1405.5  247.5 1408.14  247.5 1411.5  C 247.5 1414.86  244.86 1417.5  241.5 1417.5  C 238.14 1417.5  235.5 1414.86  235.5 1411.5  C 235.5 1408.14  238.14 1405.5  241.5 1405.5  Z " stroke-width="1" stroke="#797979" fill="none" />
  <path d="M 241.5 1414.75  C 239.68 1414.75  238.25 1413.32  238.25 1411.5  C 238.25 1409.68  239.68 1408.25  241.5 1408.25  C 243.32 1408.25  244.75 1409.68  244.75 1411.5  C 244.75 1413.32  243.32 1414.75  241.5 1414.75  " fill-rule="nonzero" fill="#797979" stroke="none" />
</svg>