<?xml version="1.0" encoding="utf-8"?>
<svg version="1.1" xmlns:xlink="http://www.w3.org/1999/xlink" width="13px" height="13px" viewBox="337 1405  13 13" xmlns="http://www.w3.org/2000/svg">
  <path d="M 343.5 1405  C 347.14 1405  350 1407.86  350 1411.5  C 350 1415.14  347.14 1418  343.5 1418  C 339.86 1418  337 1415.14  337 1411.5  C 337 1407.86  339.86 1405  343.5 1405  Z " fill-rule="nonzero" fill="#ffffff" stroke="none" />
  <path d="M 343.5 1405.5  C 346.86 1405.5  349.5 1408.14  349.5 1411.5  C 349.5 1414.86  346.86 1417.5  343.5 1417.5  C 340.14 1417.5  337.5 1414.86  337.5 1411.5  C 337.5 1408.14  340.14 1405.5  343.5 1405.5  Z " stroke-width="1" stroke="#797979" fill="none" />
  <path d="M 343.5 1414.75  C 341.68 1414.75  340.25 1413.32  340.25 1411.5  C 340.25 1409.68  341.68 1408.25  343.5 1408.25  C 345.32 1408.25  346.75 1409.68  346.75 1411.5  C 346.75 1413.32  345.32 1414.75  343.5 1414.75  " fill-rule="nonzero" fill="#797979" stroke="none" />
</svg>