<?xml version="1.0" encoding="utf-8"?>
<svg version="1.1" xmlns:xlink="http://www.w3.org/1999/xlink" width="13px" height="13px" viewBox="441 1405  13 13" xmlns="http://www.w3.org/2000/svg">
  <path d="M 447.5 1405  C 451.14 1405  454 1407.86  454 1411.5  C 454 1415.14  451.14 1418  447.5 1418  C 443.86 1418  441 1415.14  441 1411.5  C 441 1407.86  443.86 1405  447.5 1405  Z " fill-rule="nonzero" fill="#f0f0f0" stroke="none" />
  <path d="M 447.5 1405.5  C 450.86 1405.5  453.5 1408.14  453.5 1411.5  C 453.5 1414.86  450.86 1417.5  447.5 1417.5  C 444.14 1417.5  441.5 1414.86  441.5 1411.5  C 441.5 1408.14  444.14 1405.5  447.5 1405.5  Z " stroke-width="1" stroke="#797979" fill="none" />
  <path d="M 447.5 1414.75  C 445.68 1414.75  444.25 1413.32  444.25 1411.5  C 444.25 1409.68  445.68 1408.25  447.5 1408.25  C 449.32 1408.25  450.75 1409.68  450.75 1411.5  C 450.75 1413.32  449.32 1414.75  447.5 1414.75  " fill-rule="nonzero" fill="#797979" stroke="none" />
</svg>