<?xml version="1.0" encoding="utf-8"?>
<svg version="1.1" xmlns:xlink="http://www.w3.org/1999/xlink" width="20px" height="20px" xmlns="http://www.w3.org/2000/svg">
  <g transform="matrix(1 0 0 1 -1071 -664 )">
    <path d="M 1081 664.5  C 1086.32 664.5  1090.5 668.68  1090.5 674  C 1090.5 679.32  1086.32 683.5  1081 683.5  C 1075.68 683.5  1071.5 679.32  1071.5 674  C 1071.5 668.68  1075.68 664.5  1081 664.5  Z " fill-rule="nonzero" fill="#2ad68e" stroke="none" fill-opacity="0.996078431372549" />
    <path d="M 1081 664.5  C 1086.32 664.5  1090.5 668.68  1090.5 674  C 1090.5 679.32  1086.32 683.5  1081 683.5  C 1075.68 683.5  1071.5 679.32  1071.5 674  C 1071.5 668.68  1075.68 664.5  1081 664.5  Z " stroke-width="1" stroke="#808080" fill="none" stroke-opacity="0.5294117647058824" />
  </g>
</svg>