<?xml version="1.0" encoding="utf-8"?>
<svg version="1.1" xmlns:xlink="http://www.w3.org/1999/xlink" width="13px" height="13px" viewBox="973 731  13 13" xmlns="http://www.w3.org/2000/svg">
  <path d="M 979.5 731  C 983.14 731  986 733.86  986 737.5  C 986 741.14  983.14 744  979.5 744  C 975.86 744  973 741.14  973 737.5  C 973 733.86  975.86 731  979.5 731  Z " fill-rule="nonzero" fill="#ffffff" stroke="none" />
  <path d="M 979.5 731.5  C 982.86 731.5  985.5 734.14  985.5 737.5  C 985.5 740.86  982.86 743.5  979.5 743.5  C 976.14 743.5  973.5 740.86  973.5 737.5  C 973.5 734.14  976.14 731.5  979.5 731.5  Z " stroke-width="1" stroke="#797979" fill="none" />
  <path d="M 979.5 740.75  C 977.68 740.75  976.25 739.32  976.25 737.5  C 976.25 735.68  977.68 734.25  979.5 734.25  C 981.32 734.25  982.75 735.68  982.75 737.5  C 982.75 739.32  981.32 740.75  979.5 740.75  " fill-rule="nonzero" fill="#797979" stroke="none" />
</svg>