<?xml version="1.0" encoding="utf-8"?>
<svg version="1.1" xmlns:xlink="http://www.w3.org/1999/xlink" width="38px" height="19px" xmlns="http://www.w3.org/2000/svg">
  <defs>
    <mask fill="white" id="clip186">
      <path d="M 0 15  L 0 0  L 17.216652506366863 0  L 34 0  L 34 15  L 0 15  Z " fill-rule="evenodd" />
    </mask>
    <filter x="1119px" y="476px" width="38px" height="19px" filterUnits="userSpaceOnUse" id="filter187">
      <feOffset dx="0" dy="0" in="SourceAlpha" result="shadowOffsetInner" />
      <feGaussianBlur stdDeviation="1" in="shadowOffsetInner" result="shadowGaussian" />
      <feComposite in2="shadowGaussian" operator="atop" in="SourceAlpha" result="shadowComposite" />
      <feColorMatrix type="matrix" values="0 0 0 0 0.16470588235294117  0 0 0 0 0.8392156862745098  0 0 0 0 0.5568627450980392  0 0 0 0.20392156862745098 0  " in="shadowComposite" />
    </filter>
    <g id="widget188">
      <path d="M 0 15  L 0 0  L 17.216652506366863 0  L 34 0  L 34 15  L 0 15  Z " fill-rule="nonzero" fill="#2ad68e" stroke="none" fill-opacity="0.20392156862745098" transform="matrix(1 0 0 1 1121 478 )" />
      <path d="M 0 15  L 0 0  L 17.216652506366863 0  L 34 0  L 34 15  L 0 15  Z " stroke-width="2" stroke="#2ad68e" fill="none" stroke-opacity="0.20392156862745098" transform="matrix(1 0 0 1 1121 478 )" mask="url(#clip186)" />
    </g>
  </defs>
  <g transform="matrix(1 0 0 1 -1119 -476 )">
    <use xlink:href="#widget188" filter="url(#filter187)" />
    <use xlink:href="#widget188" />
  </g>
</svg>