<?xml version="1.0" encoding="utf-8"?>
<svg version="1.1" xmlns:xlink="http://www.w3.org/1999/xlink" width="19px" height="20px" xmlns="http://www.w3.org/2000/svg">
  <defs>
    <filter x="1212px" y="523px" width="19px" height="20px" filterUnits="userSpaceOnUse" id="filter189">
      <feOffset dx="0" dy="0" in="SourceAlpha" result="shadowOffsetInner" />
      <feGaussianBlur stdDeviation="1" in="shadowOffsetInner" result="shadowGaussian" />
      <feComposite in2="shadowGaussian" operator="atop" in="SourceAlpha" result="shadowComposite" />
      <feColorMatrix type="matrix" values="0 0 0 0 0.2  0 0 0 0 0.2  0 0 0 0 0.2  0 0 0 0.8 0  " in="shadowComposite" />
    </filter>
    <g id="widget190">
      <path d="M 14.7265625 0.26923076923077005  C 14.908854166666666 0.4487179487179471  15 0.6666666666666661  15 0.9230769230769234  L 15 11.692307692307693  C 15 12.012820512820511  14.889322916666664 12.298076923076923  14.66796875 12.548076923076923  C 14.446614583333334 12.798076923076923  14.166666666666668 12.99198717948718  13.828125 13.129807692307693  C 13.489583333333336 13.267628205128204  13.152669270833336 13.370192307692307  12.8173828125 13.4375  C 12.482096354166668 13.504807692307693  12.16796875 13.538461538461538  11.875 13.538461538461538  C 11.58203125 13.538461538461538  11.267903645833334 13.504807692307693  10.9326171875 13.4375  C 10.597330729166666 13.370192307692307  10.260416666666666 13.267628205128204  9.921875 13.129807692307693  C 9.583333333333334 12.99198717948718  9.303385416666668 12.798076923076923  9.08203125 12.548076923076923  C 8.860677083333334 12.298076923076923  8.75 12.012820512820511  8.75 11.692307692307693  C 8.75 11.371794871794872  8.860677083333334 11.086538461538462  9.08203125 10.836538461538462  C 9.303385416666668 10.586538461538462  9.583333333333334 10.392628205128204  9.921875 10.254807692307693  C 10.260416666666666 10.116987179487179  10.597330729166666 10.014423076923077  10.9326171875 9.947115384615385  C 11.267903645833334 9.879807692307693  11.58203125 9.846153846153847  11.875 9.846153846153847  C 12.55859375 9.846153846153847  13.18359375 9.971153846153847  13.75 10.221153846153847  L 13.75 5.057692307692308  L 6.25 7.336538461538462  L 6.25 14.153846153846153  C 6.25 14.474358974358974  6.139322916666667 14.759615384615385  5.91796875 15.009615384615385  C 5.696614583333334 15.259615384615385  5.416666666666668 15.453525641025642  5.078125 15.591346153846153  C 4.739583333333334 15.729166666666666  4.402669270833334 15.83173076923077  4.0673828125 15.899038461538462  C 3.732096354166667 15.966346153846153  3.41796875 16  3.125 16  C 2.83203125 16  2.517903645833334 15.966346153846153  2.1826171875 15.899038461538462  C 1.847330729166667 15.83173076923077  1.510416666666667 15.729166666666666  1.171875 15.591346153846153  C 0.8333333333333334 15.453525641025642  0.5533854166666666 15.259615384615385  0.33203125 15.009615384615385  C 0.11067708333333331 14.759615384615385  0 14.474358974358974  0 14.153846153846153  C 0 13.833333333333334  0.11067708333333331 13.548076923076923  0.33203125 13.298076923076923  C 0.5533854166666666 13.048076923076923  0.8333333333333334 12.854166666666666  1.171875 12.716346153846153  C 1.510416666666667 12.578525641025642  1.847330729166667 12.475961538461538  2.1826171875 12.408653846153847  C 2.517903645833334 12.341346153846153  2.83203125 12.307692307692307  3.125 12.307692307692307  C 3.80859375 12.307692307692307  4.43359375 12.432692307692307  5 12.682692307692307  L 5 3.384615384615385  C 5 3.1858974358974343  5.061848958333334 3.0048076923076916  5.185546875 2.8413461538461533  C 5.309244791666668 2.677884615384615  5.46875 2.564102564102562  5.6640625 2.5  L 13.7890625 0.038461538461538325  C 13.8671875 0.012820512820512775  13.958333333333336 0  14.0625 0  C 14.322916666666668 0  14.544270833333336 0.08974358974358942  14.7265625 0.26923076923077005  Z " fill-rule="nonzero" fill="#333333" stroke="none" fill-opacity="0.8" transform="matrix(1 0 0 1 1214 525 )" />
    </g>
  </defs>
  <g transform="matrix(1 0 0 1 -1212 -523 )">
    <use xlink:href="#widget190" filter="url(#filter189)" />
    <use xlink:href="#widget190" />
  </g>
</svg>