<?xml version="1.0" encoding="utf-8"?>
<svg version="1.1" xmlns:xlink="http://www.w3.org/1999/xlink" width="170px" height="170px" xmlns="http://www.w3.org/2000/svg">
  <g transform="matrix(1 0 0 1 -103 -73 )">
    <path d="M 188 77  C 233.36 77  269 112.63999999999999  269 158  C 269 203.36  233.36 239  188 239  C 142.64 239  107 203.36  107 158  C 107 112.63999999999999  142.64 77  188 77  Z " fill-rule="nonzero" fill="#e7eaed" stroke="none" fill-opacity="0.996078431372549" />
    <path d="M 188 75.5  C 234.20000000000002 75.5  270.5 111.8  270.5 158  C 270.5 204.20000000000002  234.20000000000002 240.5  188 240.5  C 141.8 240.5  105.5 204.20000000000002  105.5 158  C 105.5 111.8  141.8 75.5  188 75.5  Z " stroke-width="5" stroke="#fcfcfc" fill="none" />
  </g>
</svg>