<?xml version="1.0" encoding="utf-8"?>
<svg version="1.1" xmlns:xlink="http://www.w3.org/1999/xlink" width="62px" height="28px" xmlns="http://www.w3.org/2000/svg">
  <defs>
    <filter x="137px" y="143px" width="62px" height="28px" filterUnits="userSpaceOnUse" id="filter162">
      <feOffset dx="0" dy="0" in="SourceAlpha" result="shadowOffsetInner" />
      <feGaussianBlur stdDeviation="2.5" in="shadowOffsetInner" result="shadowGaussian" />
      <feComposite in2="shadowGaussian" operator="atop" in="SourceAlpha" result="shadowComposite" />
      <feColorMatrix type="matrix" values="0 0 0 0 1  0 0 0 0 1  0 0 0 0 1  0 0 0 1 0  " in="shadowComposite" />
    </filter>
    <g id="widget163">
      <path d="M 142.5 157  A 8.5 8.5 0 0 1 151 148.5 L 185 148.5  A 8.5 8.5 0 0 1 193.5 157 A 8.5 8.5 0 0 1 185 165.5 L 151 165.5  A 8.5 8.5 0 0 1 142.5 157 Z " fill-rule="nonzero" fill="#ffffff" stroke="none" fill-opacity="0.8941176470588236" />
      <path d="M 142.5 157  A 8.5 8.5 0 0 1 151 148.5 L 185 148.5  A 8.5 8.5 0 0 1 193.5 157 A 8.5 8.5 0 0 1 185 165.5 L 151 165.5  A 8.5 8.5 0 0 1 142.5 157 Z " stroke-width="1" stroke="#f2f2f2" fill="none" />
    </g>
  </defs>
  <g transform="matrix(1 0 0 1 -137 -143 )">
    <use xlink:href="#widget163" filter="url(#filter162)" />
    <use xlink:href="#widget163" />
  </g>
</svg>