<?xml version="1.0" encoding="utf-8"?>
<svg version="1.1" xmlns:xlink="http://www.w3.org/1999/xlink" width="75px" height="28px" xmlns="http://www.w3.org/2000/svg">
  <defs>
    <filter x="132px" y="131px" width="75px" height="28px" filterUnits="userSpaceOnUse" id="filter164">
      <feOffset dx="0" dy="0" in="SourceAlpha" result="shadowOffsetInner" />
      <feGaussianBlur stdDeviation="2.5" in="shadowOffsetInner" result="shadowGaussian" />
      <feComposite in2="shadowGaussian" operator="atop" in="SourceAlpha" result="shadowComposite" />
      <feColorMatrix type="matrix" values="0 0 0 0 0.10196078431372549  0 0 0 0 0.9411764705882353  0 0 0 0 0.592156862745098  0 0 0 0.996078431372549 0  " in="shadowComposite" />
    </filter>
    <g id="widget165">
      <path d="M 138 145  A 8 8 0 0 1 146 137 L 193 137  A 8 8 0 0 1 201 145 A 8 8 0 0 1 193 153 L 146 153  A 8 8 0 0 1 138 145 Z " fill-rule="nonzero" fill="#2ad68e" stroke="none" fill-opacity="0.6980392156862745" />
      <path d="M 137.5 145  A 8.5 8.5 0 0 1 146 136.5 L 193 136.5  A 8.5 8.5 0 0 1 201.5 145 A 8.5 8.5 0 0 1 193 153.5 L 146 153.5  A 8.5 8.5 0 0 1 137.5 145 Z " stroke-width="1" stroke="#2ad68e" fill="none" stroke-opacity="0.996078431372549" />
    </g>
  </defs>
  <g transform="matrix(1 0 0 1 -132 -131 )">
    <use xlink:href="#widget165" filter="url(#filter164)" />
    <use xlink:href="#widget165" />
  </g>
</svg>