<?xml version="1.0" encoding="utf-8"?>
<svg version="1.1" xmlns:xlink="http://www.w3.org/1999/xlink" width="35px" height="18px" xmlns="http://www.w3.org/2000/svg">
  <defs>
    <filter x="35px" y="31px" width="35px" height="18px" filterUnits="userSpaceOnUse" id="filter170">
      <feOffset dx="0" dy="0" in="SourceAlpha" result="shadowOffsetInner" />
      <feGaussianBlur stdDeviation="2.5" in="shadowOffsetInner" result="shadowGaussian" />
      <feComposite in2="shadowGaussian" operator="atop" in="SourceAlpha" result="shadowComposite" />
      <feColorMatrix type="matrix" values="0 0 0 0 0.10196078431372549  0 0 0 0 0.9411764705882353  0 0 0 0 0.592156862745098  0 0 0 0.996078431372549 0  " in="shadowComposite" />
    </filter>
    <g id="widget171">
      <path d="M 41 40  A 3 3 0 0 1 44 37 L 61 37  A 3 3 0 0 1 64 40 A 3 3 0 0 1 61 43 L 44 43  A 3 3 0 0 1 41 40 Z " fill-rule="nonzero" fill="#2ad68e" stroke="none" fill-opacity="0.6980392156862745" />
      <path d="M 40.5 40  A 3.5 3.5 0 0 1 44 36.5 L 61 36.5  A 3.5 3.5 0 0 1 64.5 40 A 3.5 3.5 0 0 1 61 43.5 L 44 43.5  A 3.5 3.5 0 0 1 40.5 40 Z " stroke-width="1" stroke="#2ad68e" fill="none" stroke-opacity="0.996078431372549" />
    </g>
  </defs>
  <g transform="matrix(1 0 0 1 -35 -31 )">
    <use xlink:href="#widget171" filter="url(#filter170)" />
    <use xlink:href="#widget171" />
  </g>
</svg>