<?xml version="1.0" encoding="utf-8"?>
<svg version="1.1" xmlns:xlink="http://www.w3.org/1999/xlink" width="29px" height="19px" xmlns="http://www.w3.org/2000/svg">
  <defs>
    <mask fill="white" id="clip172">
      <path d="M 0 15  L 0 0  L 12.659303313505047 0  L 25 0  L 25 15  L 0 15  Z " fill-rule="evenodd" />
    </mask>
    <filter x="244px" y="43px" width="29px" height="19px" filterUnits="userSpaceOnUse" id="filter173">
      <feOffset dx="0" dy="0" in="SourceAlpha" result="shadowOffsetInner" />
      <feGaussianBlur stdDeviation="1" in="shadowOffsetInner" result="shadowGaussian" />
      <feComposite in2="shadowGaussian" operator="atop" in="SourceAlpha" result="shadowComposite" />
      <feColorMatrix type="matrix" values="0 0 0 0 0.10196078431372549  0 0 0 0 0.9411764705882353  0 0 0 0 0.592156862745098  0 0 0 0.996078431372549 0  " in="shadowComposite" />
    </filter>
    <g id="widget174">
      <path d="M 0 15  L 0 0  L 12.659303313505047 0  L 25 0  L 25 15  L 0 15  Z " fill-rule="nonzero" fill="#2ad68e" stroke="none" fill-opacity="0.4980392156862745" transform="matrix(1 0 0 1 246 45 )" />
      <path d="M 0 15  L 0 0  L 12.659303313505047 0  L 25 0  L 25 15  L 0 15  Z " stroke-width="2" stroke="#1af097" fill="none" stroke-opacity="0.996078431372549" transform="matrix(1 0 0 1 246 45 )" mask="url(#clip172)" />
    </g>
  </defs>
  <g transform="matrix(1 0 0 1 -244 -43 )">
    <use xlink:href="#widget174" filter="url(#filter173)" />
    <use xlink:href="#widget174" />
  </g>
</svg>