<?xml version="1.0" encoding="utf-8"?>
<svg version="1.1" xmlns:xlink="http://www.w3.org/1999/xlink" width="27px" height="17px" xmlns="http://www.w3.org/2000/svg">
  <g transform="matrix(1 0 0 1 -338 -67 )">
    <path d="M 0.67236328125 11.800390624999999  C 0.22412109375 10.751171875  0 9.651041666666666  0 8.5  C 0 7.348958333333333  0.22412109375 6.248828124999999  0.67236328125 5.1996093750000005  C 1.1206054687500002 4.150390625  1.720458984375 3.2472656250000003  2.471923828125 2.490234375  C 3.2233886718750004 1.7332031249999997  4.119873046875 1.12890625  5.161376953125 0.6773437499999992  C 6.202880859375001 0.22578125000000038  7.294921875000001 0  8.4375 0  L 18.5625 0  C 19.705078125 0  20.797119140625 0.22578125000000038  21.838623046875 0.6773437499999992  C 22.880126953125 1.12890625  23.776611328125 1.7332031249999997  24.528076171875 2.490234375  C 25.279541015625 3.2472656250000003  25.87939453125 4.150390625  26.32763671875 5.1996093750000005  C 26.77587890625 6.248828124999999  27 7.348958333333333  27 8.5  C 27 9.651041666666666  26.77587890625 10.751171875  26.32763671875 11.800390624999999  C 25.87939453125 12.849609375  25.279541015625 13.752734375  24.528076171875 14.509765625  C 23.776611328125 15.266796875  22.880126953125 15.87109375  21.838623046875 16.32265625  C 20.797119140625 16.77421875  19.705078125 17  18.5625 17  L 8.4375 17  C 7.294921875000001 17  6.202880859375001 16.77421875  5.161376953125 16.32265625  C 4.119873046875 15.87109375  3.2233886718750004 15.266796875  2.471923828125 14.509765625  C 1.720458984375 13.752734375  1.1206054687500002 12.849609375  0.67236328125 11.800390624999999  Z M 15.945556640625 14.762109375000001  C 16.776123046875 15.120703124999999  17.6484375 15.3  18.5625 15.3  C 19.476562500000004 15.3  20.348876953125 15.120703124999999  21.179443359375 14.762109375000001  C 22.010009765625004 14.403515625  22.728515625000004 13.91875  23.3349609375 13.3078125  C 23.941406250000004 12.696874999999999  24.422607421875004 11.973046875000001  24.778564453125 11.136328124999999  C 25.134521484375004 10.299609375  25.312500000000004 9.420833333333333  25.3125 8.5  C 25.312500000000004 7.579166666666666  25.134521484375004 6.700390625000001  24.778564453125 5.8636718750000005  C 24.422607421875004 5.0269531249999995  23.941406250000004 4.303124999999999  23.3349609375 3.6921874999999997  C 22.728515625000004 3.0812500000000003  22.010009765625004 2.5964843749999997  21.179443359375 2.2378906249999995  C 20.348876953125 1.8792968750000008  19.476562500000004 1.6999999999999997  18.5625 1.6999999999999997  C 17.6484375 1.6999999999999997  16.776123046875 1.8792968750000008  15.945556640625 2.2378906249999995  C 15.114990234375 2.5964843749999997  14.396484375 3.0812500000000003  13.7900390625 3.6921874999999997  C 13.18359375 4.303124999999999  12.702392578125 5.0269531249999995  12.346435546875 5.8636718750000005  C 11.990478515625 6.700390625000001  11.8125 7.579166666666666  11.8125 8.5  C 11.8125 9.420833333333333  11.990478515625 10.299609375  12.346435546875 11.136328124999999  C 12.702392578125 11.973046875000001  13.18359375 12.696874999999999  13.7900390625 13.3078125  C 14.396484375 13.91875  15.114990234375 14.403515625  15.945556640625 14.762109375000001  Z " fill-rule="nonzero" fill="#000000" stroke="none" fill-opacity="0.803921568627451" transform="matrix(1 0 0 1 338 67 )" />
  </g>
</svg>