<?xml version="1.0" encoding="utf-8"?>
<svg version="1.1" xmlns:xlink="http://www.w3.org/1999/xlink" width="36px" height="26px" xmlns="http://www.w3.org/2000/svg">
  <g transform="matrix(1 0 0 1 -255 -290 )">
    <path d="M 34.425000000000004 14.48650568181818  C 35.47500000000001 15.772964015151516  36.00000000000001 17.24715909090909  36 18.90909090909091  C 36.00000000000001 20.86647727272727  35.29687500000001 22.537642045454547  33.890625 23.92258522727273  C 32.48437500000001 25.30752840909091  30.787500000000005 26  28.8 26  L 8.4 26  C 6.0874999999999995 26  4.109375 25.190577651515152  2.465625 23.571732954545453  C 0.8218749999999999 21.952888257575754  0 20.00473484848485  0 17.72727272727273  C 0 16.10227272727273  0.44375 14.615767045454545  1.33125 13.26775568181818  C 2.21875 11.91974431818182  3.3875000000000006 10.913352272727273  4.8374999999999995 10.248579545454545  C 4.8125 9.903882575757574  4.8 9.639204545454545  4.8 9.454545454545455  C 4.8 6.844696969696968  5.7375 4.616477272727274  7.6125 2.769886363636364  C 9.4875 0.9232954545454548  11.750000000000002 0  14.4 0  C 16.375 0  18.165625 0.5416666666666647  19.771874999999998 1.625  C 21.378125000000004 2.7083333333333295  22.55 4.124053030303029  23.287499999999998 5.87215909090909  C 24.1625 5.108901515151513  25.2 4.727272727272726  26.4 4.727272727272726  C 27.725 4.727272727272726  28.85625 5.188920454545455  29.793750000000003 6.11221590909091  C 30.73125 7.035511363636364  31.200000000000003 8.14962121212121  31.200000000000003 9.454545454545455  C 31.200000000000003 10.37784090909091  30.94375 11.227272727272727  30.431250000000002 12.00284090909091  C 32.04375 12.37215909090909  33.37500000000001 13.200047348484846  34.425000000000004 14.48650568181818  Z " fill-rule="nonzero" fill="#000000" stroke="none" fill-opacity="0.34509803921568627" transform="matrix(1 0 0 1 255 290 )" />
  </g>
</svg>