<?xml version="1.0" encoding="utf-8"?>
<svg version="1.1" xmlns:xlink="http://www.w3.org/1999/xlink" width="72px" height="72px" xmlns="http://www.w3.org/2000/svg">
  <g transform="matrix(1 0 0 1 -127 -1469 )">
    <path d="M 163 1473  C 180.92000000000002 1473  195 1487.08  195 1505  C 195 1522.92  180.92000000000002 1537  163 1537  C 145.07999999999998 1537  131 1522.92  131 1505  C 131 1487.08  145.07999999999998 1473  163 1473  Z " fill-rule="nonzero" fill="#e7eaed" stroke="none" fill-opacity="0.996078431372549" />
    <path d="M 163 1471.5  C 181.76 1471.5  196.5 1486.24  196.5 1505  C 196.5 1523.76  181.76 1538.5  163 1538.5  C 144.24 1538.5  129.5 1523.76  129.5 1505  C 129.5 1486.24  144.24 1471.5  163 1471.5  Z " stroke-width="5" stroke="#fcfcfc" fill="none" />
  </g>
</svg>