<?xml version="1.0" encoding="utf-8"?>
<svg version="1.1" xmlns:xlink="http://www.w3.org/1999/xlink" width="15px" height="15px" xmlns="http://www.w3.org/2000/svg">
  <g transform="matrix(1 0 0 1 -389 -1520 )">
    <path d="M 396.5 1520.5  C 400.42 1520.5  403.5 1523.58  403.5 1527.5  C 403.5 1531.42  400.42 1534.5  396.5 1534.5  C 392.58 1534.5  389.5 1531.42  389.5 1527.5  C 389.5 1523.58  392.58 1520.5  396.5 1520.5  Z " fill-rule="nonzero" fill="#2ad68e" stroke="none" fill-opacity="0.996078431372549" />
    <path d="M 396.5 1520.5  C 400.42 1520.5  403.5 1523.58  403.5 1527.5  C 403.5 1531.42  400.42 1534.5  396.5 1534.5  C 392.58 1534.5  389.5 1531.42  389.5 1527.5  C 389.5 1523.58  392.58 1520.5  396.5 1520.5  Z " stroke-width="1" stroke="#808080" fill="none" stroke-opacity="0.5294117647058824" />
  </g>
</svg>