<?xml version="1.0" encoding="utf-8"?>
<svg version="1.1" xmlns:xlink="http://www.w3.org/1999/xlink" width="49px" height="14px" xmlns="http://www.w3.org/2000/svg">
  <g transform="matrix(1 0 0 1 -280 -872 )">
    <path d="M 12.389204545454547 1.0208333333333328  C 13.038825757575756 1.7013888888888828  13.363636363636363 2.527777777777775  13.363636363636363 3.5  L 13.363636363636363 10.5  C 13.363636363636363 11.47222222222222  13.038825757575756 12.298611111111107  12.389204545454547 12.979166666666668  C 11.739583333333336 13.65972222222222  10.950757575757576 14  10.022727272727273 14  L 3.340909090909091 14  C 2.412878787878788 14  1.6240530303030305 13.65972222222222  0.9744318181818181 12.979166666666668  C 0.324810606060606 12.298611111111107  0 11.47222222222222  0 10.5  L 0 3.5  C 0 2.527777777777775  0.324810606060606 1.7013888888888828  0.9744318181818181 1.0208333333333328  C 1.6240530303030305 0.340277777777775  2.412878787878788 0  3.340909090909091 0  L 10.022727272727273 0  C 10.950757575757576 0  11.739583333333336 0.340277777777775  12.389204545454547 1.0208333333333328  Z M 30.207386363636363 1.0208333333333328  C 30.857007575757578 1.7013888888888828  31.18181818181818 2.527777777777775  31.18181818181818 3.5  L 31.18181818181818 10.5  C 31.18181818181818 11.47222222222222  30.857007575757578 12.298611111111107  30.207386363636363 12.979166666666668  C 29.55776515151516 13.65972222222222  28.768939393939394 14  27.840909090909093 14  L 21.15909090909091 14  C 20.231060606060606 14  19.44223484848485 13.65972222222222  18.792613636363637 12.979166666666668  C 18.142992424242426 12.298611111111107  17.81818181818182 11.47222222222222  17.81818181818182 10.5  L 17.81818181818182 3.5  C 17.81818181818182 2.527777777777775  18.142992424242426 1.7013888888888828  18.792613636363637 1.0208333333333328  C 19.44223484848485 0.340277777777775  20.231060606060606 0  21.15909090909091 0  L 27.840909090909093 0  C 28.768939393939394 0  29.55776515151516 0.340277777777775  30.207386363636363 1.0208333333333328  Z M 48.02556818181818 1.0208333333333328  C 48.6751893939394 1.7013888888888828  49 2.527777777777775  49 3.5  L 49 10.5  C 49 11.47222222222222  48.6751893939394 12.298611111111107  48.02556818181818 12.979166666666668  C 47.375946969696976 13.65972222222222  46.58712121212121 14  45.65909090909091 14  L 38.97727272727273 14  C 38.04924242424243 14  37.26041666666667 13.65972222222222  36.61079545454545 12.979166666666668  C 35.96117424242425 12.298611111111107  35.63636363636364 11.47222222222222  35.63636363636364 10.5  L 35.63636363636364 3.5  C 35.63636363636364 2.527777777777775  35.96117424242425 1.7013888888888828  36.61079545454545 1.0208333333333328  C 37.26041666666667 0.340277777777775  38.04924242424243 0  38.97727272727273 0  L 45.65909090909091 0  C 46.58712121212121 0  47.375946969696976 0.340277777777775  48.02556818181818 1.0208333333333328  Z " fill-rule="nonzero" fill="#797979" stroke="none" transform="matrix(1 0 0 1 280 872 )" />
  </g>
</svg>