<?xml version="1.0" encoding="utf-8"?>
<svg version="1.1" xmlns:xlink="http://www.w3.org/1999/xlink" width="25px" height="31px" xmlns="http://www.w3.org/2000/svg">
  <defs>
    <mask fill="white" id="clip201">
      <path d="M 12.5 29.61607142857143  C 12.660256410256412 29.61607142857143  12.740384615384617 29.523809523809526  12.740384615384615 29.33928571428571  C 12.740384615384617 29.154761904761905  12.660256410256412 29.0625  12.5 29.0625  C 11.909054487179487 29.0625  11.400741185897438 28.817429315476186  10.975060096153847 28.32728794642857  C 10.549379006410257 27.837146577380953  10.336538461538462 27.251860119047617  10.336538461538462 26.571428571428573  C 10.336538461538462 26.386904761904763  10.256410256410257 26.294642857142858  10.096153846153847 26.294642857142858  C 9.935897435897436 26.294642857142858  9.85576923076923 26.386904761904763  9.85576923076923 26.571428571428573  C 9.85576923076923 27.413318452380953  10.113681891025642 28.131231398809526  10.629507211538462 28.72516741071429  C 11.145332532051283 29.319103422619047  11.76883012820513 29.61607142857143  12.5 29.61607142857143  Z M 6.730769230769231 9.964285714285714  C 6.730769230769231 16.099702380952383  5.398637820512821 20.897321428571427  2.734375 24  L 22.265625 24  C 19.601362179487182 20.897321428571427  18.269230769230766 16.099702380952383  18.269230769230766 9.964285714285714  C 18.269230769230766 9.37611607142857  18.14903846153846 8.77064732142857  17.908653846153847 8.147879464285714  C 17.668269230769234 7.525111607142857  17.322716346153847 6.931175595238092  16.871995192307693 6.36607142857143  C 16.42127403846154 5.800967261904761  15.812800480769232 5.33677455357143  15.046574519230768 4.97349330357143  C 14.280348557692307 4.61021205357143  13.431490384615385 4.42857142857143  12.5 4.42857142857143  C 11.568509615384617 4.42857142857143  10.719651442307693 4.61021205357143  9.95342548076923 4.97349330357143  C 9.18719951923077 5.33677455357143  8.578725961538462 5.800967261904761  8.128004807692307 6.36607142857143  C 7.677283653846153 6.931175595238092  7.331730769230769 7.525111607142857  7.091346153846153 8.147879464285714  C 6.850961538461539 8.77064732142857  6.730769230769231 9.37611607142857  6.730769230769231 9.964285714285714  Z M 23.6328125 22.834821428571427  C 24.043469551282055 23.365327380952383  24.49919871794872 23.872767857142858  25 24.357142857142858  C 25.000000000000007 24.956845238095237  24.809695512820515 25.475818452380956  24.42908653846154 25.9140625  C 24.048477564102566 26.352306547619044  23.597756410256412 26.571428571428573  23.076923076923077 26.571428571428573  L 16.346153846153847 26.571428571428573  C 16.346153846153847 27.793898809523814  15.970552884615385 28.837611607142858  15.219350961538462 29.70256696428571  C 14.468149038461538 30.56752232142857  13.561698717948719 31  12.5 31  C 11.438301282051283 31  10.531850961538462 30.56752232142857  9.780649038461538 29.70256696428571  C 9.029447115384617 28.837611607142858  8.653846153846153 27.793898809523814  8.653846153846153 26.571428571428573  L 1.9230769230769231 26.571428571428573  C 1.4022435897435899 26.571428571428573  0.951522435897436 26.352306547619044  0.5709134615384615 25.9140625  C 0.19030448717948725 25.475818452380956  0 24.956845238095237  0 24.357142857142858  C 0.5008012820512822 23.872767857142858  0.956530448717949 23.365327380952383  1.3671875 22.834821428571427  C 1.7778445512820515 22.304315476190474  2.203525641025641 21.615234375  2.644230769230769 20.767578125  C 3.084935897435898 19.919921875  3.458032852564103 19.00595238095238  3.7635216346153846 18.025669642857142  C 4.069010416666667 17.045386904761905  4.319411057692308 15.857514880952383  4.514723557692308 14.46205357142857  C 4.710036057692308 13.066592261904761  4.807692307692308 11.567336309523805  4.807692307692308 9.964285714285714  C 4.807692307692308 8.211309523809522  5.393629807692308 6.582310267857143  6.5655048076923075 5.07728794642857  C 7.7373798076923075 3.572265625  9.274839743589745 2.6582961309523787  11.177884615384617 2.3353794642857135  C 11.09775641025641 2.1162574404761876  11.057692307692307 1.891369047619048  11.057692307692307 1.6607142857142867  C 11.057692307692307 1.199404761904761  11.197916666666668 0.8072916666666655  11.478365384615383 0.484375  C 11.758814102564104 0.16145833333333448  12.099358974358974 0  12.5 0  C 12.900641025641027 0  13.2411858974359 0.16145833333333448  13.521634615384615 0.484375  C 13.802083333333334 0.8072916666666655  13.942307692307693 1.199404761904761  13.942307692307693 1.6607142857142867  C 13.942307692307693 1.891369047619048  13.902243589743591 2.1162574404761876  13.822115384615385 2.3353794642857135  C 15.725160256410259 2.6582961309523787  17.262620192307693 3.572265625  18.434495192307693 5.07728794642857  C 19.606370192307693 6.582310267857143  20.192307692307693 8.211309523809522  20.192307692307693 9.964285714285714  C 20.192307692307693 11.567336309523805  20.289963942307693 13.066592261904761  20.485276442307693 14.46205357142857  C 20.680588942307693 15.857514880952383  20.930989583333336 17.045386904761905  21.236478365384613 18.025669642857142  C 21.5419671474359 19.00595238095238  21.915064102564102 19.919921875  22.355769230769234 20.767578125  C 22.79647435897436 21.615234375  23.222155448717956 22.304315476190474  23.6328125 22.834821428571427  Z " fill-rule="evenodd" />
    </mask>
  </defs>
  <g transform="matrix(1 0 0 1 -181 -281 )">
    <path d="M 12.5 29.61607142857143  C 12.660256410256412 29.61607142857143  12.740384615384617 29.523809523809526  12.740384615384615 29.33928571428571  C 12.740384615384617 29.154761904761905  12.660256410256412 29.0625  12.5 29.0625  C 11.909054487179487 29.0625  11.400741185897438 28.817429315476186  10.975060096153847 28.32728794642857  C 10.549379006410257 27.837146577380953  10.336538461538462 27.251860119047617  10.336538461538462 26.571428571428573  C 10.336538461538462 26.386904761904763  10.256410256410257 26.294642857142858  10.096153846153847 26.294642857142858  C 9.935897435897436 26.294642857142858  9.85576923076923 26.386904761904763  9.85576923076923 26.571428571428573  C 9.85576923076923 27.413318452380953  10.113681891025642 28.131231398809526  10.629507211538462 28.72516741071429  C 11.145332532051283 29.319103422619047  11.76883012820513 29.61607142857143  12.5 29.61607142857143  Z M 6.730769230769231 9.964285714285714  C 6.730769230769231 16.099702380952383  5.398637820512821 20.897321428571427  2.734375 24  L 22.265625 24  C 19.601362179487182 20.897321428571427  18.269230769230766 16.099702380952383  18.269230769230766 9.964285714285714  C 18.269230769230766 9.37611607142857  18.14903846153846 8.77064732142857  17.908653846153847 8.147879464285714  C 17.668269230769234 7.525111607142857  17.322716346153847 6.931175595238092  16.871995192307693 6.36607142857143  C 16.42127403846154 5.800967261904761  15.812800480769232 5.33677455357143  15.046574519230768 4.97349330357143  C 14.280348557692307 4.61021205357143  13.431490384615385 4.42857142857143  12.5 4.42857142857143  C 11.568509615384617 4.42857142857143  10.719651442307693 4.61021205357143  9.95342548076923 4.97349330357143  C 9.18719951923077 5.33677455357143  8.578725961538462 5.800967261904761  8.128004807692307 6.36607142857143  C 7.677283653846153 6.931175595238092  7.331730769230769 7.525111607142857  7.091346153846153 8.147879464285714  C 6.850961538461539 8.77064732142857  6.730769230769231 9.37611607142857  6.730769230769231 9.964285714285714  Z M 23.6328125 22.834821428571427  C 24.043469551282055 23.365327380952383  24.49919871794872 23.872767857142858  25 24.357142857142858  C 25.000000000000007 24.956845238095237  24.809695512820515 25.475818452380956  24.42908653846154 25.9140625  C 24.048477564102566 26.352306547619044  23.597756410256412 26.571428571428573  23.076923076923077 26.571428571428573  L 16.346153846153847 26.571428571428573  C 16.346153846153847 27.793898809523814  15.970552884615385 28.837611607142858  15.219350961538462 29.70256696428571  C 14.468149038461538 30.56752232142857  13.561698717948719 31  12.5 31  C 11.438301282051283 31  10.531850961538462 30.56752232142857  9.780649038461538 29.70256696428571  C 9.029447115384617 28.837611607142858  8.653846153846153 27.793898809523814  8.653846153846153 26.571428571428573  L 1.9230769230769231 26.571428571428573  C 1.4022435897435899 26.571428571428573  0.951522435897436 26.352306547619044  0.5709134615384615 25.9140625  C 0.19030448717948725 25.475818452380956  0 24.956845238095237  0 24.357142857142858  C 0.5008012820512822 23.872767857142858  0.956530448717949 23.365327380952383  1.3671875 22.834821428571427  C 1.7778445512820515 22.304315476190474  2.203525641025641 21.615234375  2.644230769230769 20.767578125  C 3.084935897435898 19.919921875  3.458032852564103 19.00595238095238  3.7635216346153846 18.025669642857142  C 4.069010416666667 17.045386904761905  4.319411057692308 15.857514880952383  4.514723557692308 14.46205357142857  C 4.710036057692308 13.066592261904761  4.807692307692308 11.567336309523805  4.807692307692308 9.964285714285714  C 4.807692307692308 8.211309523809522  5.393629807692308 6.582310267857143  6.5655048076923075 5.07728794642857  C 7.7373798076923075 3.572265625  9.274839743589745 2.6582961309523787  11.177884615384617 2.3353794642857135  C 11.09775641025641 2.1162574404761876  11.057692307692307 1.891369047619048  11.057692307692307 1.6607142857142867  C 11.057692307692307 1.199404761904761  11.197916666666668 0.8072916666666655  11.478365384615383 0.484375  C 11.758814102564104 0.16145833333333448  12.099358974358974 0  12.5 0  C 12.900641025641027 0  13.2411858974359 0.16145833333333448  13.521634615384615 0.484375  C 13.802083333333334 0.8072916666666655  13.942307692307693 1.199404761904761  13.942307692307693 1.6607142857142867  C 13.942307692307693 1.891369047619048  13.902243589743591 2.1162574404761876  13.822115384615385 2.3353794642857135  C 15.725160256410259 2.6582961309523787  17.262620192307693 3.572265625  18.434495192307693 5.07728794642857  C 19.606370192307693 6.582310267857143  20.192307692307693 8.211309523809522  20.192307692307693 9.964285714285714  C 20.192307692307693 11.567336309523805  20.289963942307693 13.066592261904761  20.485276442307693 14.46205357142857  C 20.680588942307693 15.857514880952383  20.930989583333336 17.045386904761905  21.236478365384613 18.025669642857142  C 21.5419671474359 19.00595238095238  21.915064102564102 19.919921875  22.355769230769234 20.767578125  C 22.79647435897436 21.615234375  23.222155448717956 22.304315476190474  23.6328125 22.834821428571427  Z " fill-rule="nonzero" fill="#999999" stroke="none" fill-opacity="0.996078431372549" transform="matrix(1 0 0 1 181 281 )" />
    <path d="M 12.5 29.61607142857143  C 12.660256410256412 29.61607142857143  12.740384615384617 29.523809523809526  12.740384615384615 29.33928571428571  C 12.740384615384617 29.154761904761905  12.660256410256412 29.0625  12.5 29.0625  C 11.909054487179487 29.0625  11.400741185897438 28.817429315476186  10.975060096153847 28.32728794642857  C 10.549379006410257 27.837146577380953  10.336538461538462 27.251860119047617  10.336538461538462 26.571428571428573  C 10.336538461538462 26.386904761904763  10.256410256410257 26.294642857142858  10.096153846153847 26.294642857142858  C 9.935897435897436 26.294642857142858  9.85576923076923 26.386904761904763  9.85576923076923 26.571428571428573  C 9.85576923076923 27.413318452380953  10.113681891025642 28.131231398809526  10.629507211538462 28.72516741071429  C 11.145332532051283 29.319103422619047  11.76883012820513 29.61607142857143  12.5 29.61607142857143  Z " stroke-width="4" stroke="#999999" fill="none" stroke-opacity="0.996078431372549" transform="matrix(1 0 0 1 181 281 )" mask="url(#clip201)" />
    <path d="M 6.730769230769231 9.964285714285714  C 6.730769230769231 16.099702380952383  5.398637820512821 20.897321428571427  2.734375 24  L 22.265625 24  C 19.601362179487182 20.897321428571427  18.269230769230766 16.099702380952383  18.269230769230766 9.964285714285714  C 18.269230769230766 9.37611607142857  18.14903846153846 8.77064732142857  17.908653846153847 8.147879464285714  C 17.668269230769234 7.525111607142857  17.322716346153847 6.931175595238092  16.871995192307693 6.36607142857143  C 16.42127403846154 5.800967261904761  15.812800480769232 5.33677455357143  15.046574519230768 4.97349330357143  C 14.280348557692307 4.61021205357143  13.431490384615385 4.42857142857143  12.5 4.42857142857143  C 11.568509615384617 4.42857142857143  10.719651442307693 4.61021205357143  9.95342548076923 4.97349330357143  C 9.18719951923077 5.33677455357143  8.578725961538462 5.800967261904761  8.128004807692307 6.36607142857143  C 7.677283653846153 6.931175595238092  7.331730769230769 7.525111607142857  7.091346153846153 8.147879464285714  C 6.850961538461539 8.77064732142857  6.730769230769231 9.37611607142857  6.730769230769231 9.964285714285714  Z " stroke-width="4" stroke="#999999" fill="none" stroke-opacity="0.996078431372549" transform="matrix(1 0 0 1 181 281 )" mask="url(#clip201)" />
    <path d="M 23.6328125 22.834821428571427  C 24.043469551282055 23.365327380952383  24.49919871794872 23.872767857142858  25 24.357142857142858  C 25.000000000000007 24.956845238095237  24.809695512820515 25.475818452380956  24.42908653846154 25.9140625  C 24.048477564102566 26.352306547619044  23.597756410256412 26.571428571428573  23.076923076923077 26.571428571428573  L 16.346153846153847 26.571428571428573  C 16.346153846153847 27.793898809523814  15.970552884615385 28.837611607142858  15.219350961538462 29.70256696428571  C 14.468149038461538 30.56752232142857  13.561698717948719 31  12.5 31  C 11.438301282051283 31  10.531850961538462 30.56752232142857  9.780649038461538 29.70256696428571  C 9.029447115384617 28.837611607142858  8.653846153846153 27.793898809523814  8.653846153846153 26.571428571428573  L 1.9230769230769231 26.571428571428573  C 1.4022435897435899 26.571428571428573  0.951522435897436 26.352306547619044  0.5709134615384615 25.9140625  C 0.19030448717948725 25.475818452380956  0 24.956845238095237  0 24.357142857142858  C 0.5008012820512822 23.872767857142858  0.956530448717949 23.365327380952383  1.3671875 22.834821428571427  C 1.7778445512820515 22.304315476190474  2.203525641025641 21.615234375  2.644230769230769 20.767578125  C 3.084935897435898 19.919921875  3.458032852564103 19.00595238095238  3.7635216346153846 18.025669642857142  C 4.069010416666667 17.045386904761905  4.319411057692308 15.857514880952383  4.514723557692308 14.46205357142857  C 4.710036057692308 13.066592261904761  4.807692307692308 11.567336309523805  4.807692307692308 9.964285714285714  C 4.807692307692308 8.211309523809522  5.393629807692308 6.582310267857143  6.5655048076923075 5.07728794642857  C 7.7373798076923075 3.572265625  9.274839743589745 2.6582961309523787  11.177884615384617 2.3353794642857135  C 11.09775641025641 2.1162574404761876  11.057692307692307 1.891369047619048  11.057692307692307 1.6607142857142867  C 11.057692307692307 1.199404761904761  11.197916666666668 0.8072916666666655  11.478365384615383 0.484375  C 11.758814102564104 0.16145833333333448  12.099358974358974 0  12.5 0  C 12.900641025641027 0  13.2411858974359 0.16145833333333448  13.521634615384615 0.484375  C 13.802083333333334 0.8072916666666655  13.942307692307693 1.199404761904761  13.942307692307693 1.6607142857142867  C 13.942307692307693 1.891369047619048  13.902243589743591 2.1162574404761876  13.822115384615385 2.3353794642857135  C 15.725160256410259 2.6582961309523787  17.262620192307693 3.572265625  18.434495192307693 5.07728794642857  C 19.606370192307693 6.582310267857143  20.192307692307693 8.211309523809522  20.192307692307693 9.964285714285714  C 20.192307692307693 11.567336309523805  20.289963942307693 13.066592261904761  20.485276442307693 14.46205357142857  C 20.680588942307693 15.857514880952383  20.930989583333336 17.045386904761905  21.236478365384613 18.025669642857142  C 21.5419671474359 19.00595238095238  21.915064102564102 19.919921875  22.355769230769234 20.767578125  C 22.79647435897436 21.615234375  23.222155448717956 22.304315476190474  23.6328125 22.834821428571427  Z " stroke-width="4" stroke="#999999" fill="none" stroke-opacity="0.996078431372549" transform="matrix(1 0 0 1 181 281 )" mask="url(#clip201)" />
  </g>
</svg>