<?xml version="1.0" encoding="utf-8"?>
<svg version="1.1" xmlns:xlink="http://www.w3.org/1999/xlink" width="24px" height="19px" xmlns="http://www.w3.org/2000/svg">
  <g transform="matrix(1 0 0 1 -458 -868 )">
    <path d="M 3.3013392857142856 15.673650568181818  C 3.3861607142857144 15.759114583333332  3.4285714285714284 15.860321969696969  3.4285714285714284 15.977272727272728  L 3.4285714285714284 18.56818181818182  C 3.4285714285714284 18.685132575757578  3.3861607142857144 18.78633996212121  3.3013392857142856 18.871803977272727  C 3.216517857142857 18.957267992424242  3.116071428571429 19  3 19  L 0.42857142857142855 19  C 0.3125 19  0.21205357142857142 18.957267992424242  0.12723214285714285 18.871803977272727  C 0.04241071428571429 18.78633996212121  0 18.685132575757578  0 18.56818181818182  L 0 15.977272727272728  C 0 15.860321969696969  0.04241071428571429 15.759114583333332  0.12723214285714285 15.673650568181818  C 0.21205357142857142 15.588186553030305  0.3125 15.545454545454545  0.42857142857142855 15.545454545454545  L 3 15.545454545454545  C 3.116071428571429 15.545454545454545  3.216517857142857 15.588186553030305  3.3013392857142856 15.673650568181818  Z M 3.3013392857142856 10.491832386363637  C 3.3861607142857144 10.57729640151515  3.4285714285714284 10.678503787878787  3.4285714285714284 10.795454545454545  L 3.4285714285714284 13.386363636363637  C 3.4285714285714284 13.503314393939391  3.3861607142857144 13.604521780303028  3.3013392857142856 13.689985795454545  C 3.216517857142857 13.775449810606062  3.116071428571429 13.818181818181818  3 13.818181818181818  L 0.42857142857142855 13.818181818181818  C 0.3125 13.818181818181818  0.21205357142857142 13.775449810606062  0.12723214285714285 13.689985795454545  C 0.04241071428571429 13.604521780303028  0 13.503314393939391  0 13.386363636363637  L 0 10.795454545454545  C 0 10.678503787878787  0.04241071428571429 10.57729640151515  0.12723214285714285 10.491832386363637  C 0.21205357142857142 10.40636837121212  0.3125 10.363636363636363  0.42857142857142855 10.363636363636363  L 3 10.363636363636363  C 3.116071428571429 10.363636363636363  3.216517857142857 10.40636837121212  3.3013392857142856 10.491832386363637  Z M 3.3013392857142856 5.310014204545453  C 3.3861607142857144 5.395478219696969  3.4285714285714284 5.496685606060604  3.4285714285714284 5.613636363636363  L 3.4285714285714284 8.204545454545453  C 3.4285714285714284 8.321496212121213  3.3861607142857144 8.422703598484848  3.3013392857142856 8.508167613636363  C 3.216517857142857 8.593631628787879  3.116071428571429 8.636363636363637  3 8.636363636363637  L 0.42857142857142855 8.636363636363637  C 0.3125 8.636363636363637  0.21205357142857142 8.593631628787879  0.12723214285714285 8.508167613636363  C 0.04241071428571429 8.422703598484848  0 8.321496212121213  0 8.204545454545453  L 0 5.613636363636363  C 0 5.496685606060604  0.04241071428571429 5.395478219696969  0.12723214285714285 5.310014204545453  C 0.21205357142857142 5.224550189393938  0.3125 5.181818181818182  0.42857142857142855 5.181818181818182  L 3 5.181818181818182  C 3.116071428571429 5.181818181818182  3.216517857142857 5.224550189393938  3.3013392857142856 5.310014204545453  Z M 23.872767857142858 15.673650568181818  C 23.95758928571429 15.759114583333332  24 15.860321969696969  24 15.977272727272728  L 24 18.56818181818182  C 24 18.685132575757578  23.95758928571429 18.78633996212121  23.872767857142858 18.871803977272727  C 23.78794642857143 18.957267992424242  23.687500000000004 19  23.57142857142857 19  L 5.571428571428571 19  C 5.455357142857143 19  5.354910714285715 18.957267992424242  5.270089285714286 18.871803977272727  C 5.185267857142857 18.78633996212121  5.142857142857142 18.685132575757578  5.142857142857142 18.56818181818182  L 5.142857142857142 15.977272727272728  C 5.142857142857142 15.860321969696969  5.185267857142857 15.759114583333332  5.270089285714286 15.673650568181818  C 5.354910714285715 15.588186553030305  5.455357142857143 15.545454545454545  5.571428571428571 15.545454545454545  L 23.57142857142857 15.545454545454545  C 23.687500000000004 15.545454545454545  23.78794642857143 15.588186553030305  23.872767857142858 15.673650568181818  Z M 3.3013392857142856 0.12819602272727215  C 3.3861607142857144 0.21366003787878762  3.4285714285714284 0.31486742424242264  3.4285714285714284 0.43181818181818143  L 3.4285714285714284 3.022727272727272  C 3.4285714285714284 3.139678030303029  3.3861607142857144 3.240885416666664  3.3013392857142856 3.3263494318181817  C 3.216517857142857 3.411813446969697  3.116071428571429 3.4545454545454537  3 3.4545454545454537  L 0.42857142857142855 3.4545454545454537  C 0.3125 3.4545454545454537  0.21205357142857142 3.411813446969697  0.12723214285714285 3.3263494318181817  C 0.04241071428571429 3.240885416666664  0 3.139678030303029  0 3.022727272727272  L 0 0.43181818181818143  C 0 0.31486742424242264  0.04241071428571429 0.21366003787878762  0.12723214285714285 0.12819602272727215  C 0.21205357142857142 0.04273200757575457  0.3125 0  0.42857142857142855 0  L 3 0  C 3.116071428571429 0  3.216517857142857 0.04273200757575457  3.3013392857142856 0.12819602272727215  Z M 23.872767857142858 10.491832386363637  C 23.95758928571429 10.57729640151515  24 10.678503787878787  24 10.795454545454545  L 24 13.386363636363637  C 24 13.503314393939391  23.95758928571429 13.604521780303028  23.872767857142858 13.689985795454545  C 23.78794642857143 13.775449810606062  23.687500000000004 13.818181818181818  23.57142857142857 13.818181818181818  L 5.571428571428571 13.818181818181818  C 5.455357142857143 13.818181818181818  5.354910714285715 13.775449810606062  5.270089285714286 13.689985795454545  C 5.185267857142857 13.604521780303028  5.142857142857142 13.503314393939391  5.142857142857142 13.386363636363637  L 5.142857142857142 10.795454545454545  C 5.142857142857142 10.678503787878787  5.185267857142857 10.57729640151515  5.270089285714286 10.491832386363637  C 5.354910714285715 10.40636837121212  5.455357142857143 10.363636363636363  5.571428571428571 10  L 23.57142857142857 10  C 23.687500000000004 10.363636363636363  23.78794642857143 10.40636837121212  23.872767857142858 10.491832386363637  Z M 23.872767857142858 5.310014204545453  C 23.95758928571429 5.395478219696969  24 5.496685606060604  24 5.613636363636363  L 24 8.204545454545453  C 24 8.321496212121213  23.95758928571429 8.422703598484848  23.872767857142858 8.508167613636363  C 23.78794642857143 8.593631628787879  23.687500000000004 8.636363636363637  23.57142857142857 9  L 5.571428571428571 9  C 5.455357142857143 8.636363636363637  5.354910714285715 8.593631628787879  5.270089285714286 8.508167613636363  C 5.185267857142857 8.422703598484848  5.142857142857142 8.321496212121213  5.142857142857142 8.204545454545453  L 5.142857142857142 5.613636363636363  C 5.142857142857142 5.496685606060604  5.185267857142857 5.395478219696969  5.270089285714286 5.310014204545453  C 5.354910714285715 5.224550189393938  5.455357142857143 5.181818181818182  5.571428571428571 5.181818181818182  L 23.57142857142857 5.181818181818182  C 23.687500000000004 5.181818181818182  23.78794642857143 5.224550189393938  23.872767857142858 5.310014204545453  Z M 23.872767857142858 0.12819602272727215  C 23.95758928571429 0.21366003787878762  24 0.31486742424242264  24 0.43181818181818143  L 24 3.022727272727272  C 24 3.139678030303029  23.95758928571429 3.240885416666664  23.872767857142858 3.3263494318181817  C 23.78794642857143 3.411813446969697  23.687500000000004 3.4545454545454537  23.57142857142857 3.4545454545454537  L 5.571428571428571 3.4545454545454537  C 5.455357142857143 3.4545454545454537  5.354910714285715 3.411813446969697  5.270089285714286 3.3263494318181817  C 5.185267857142857 3.240885416666664  5.142857142857142 3.139678030303029  5.142857142857142 3.022727272727272  L 5.142857142857142 0.43181818181818143  C 5.142857142857142 0.31486742424242264  5.185267857142857 0.21366003787878762  5.270089285714286 0.12819602272727215  C 5.354910714285715 0.04273200757575457  5.455357142857143 0  5.571428571428571 0  L 23.57142857142857 0  C 23.687500000000004 0  23.78794642857143 0.04273200757575457  23.872767857142858 0.12819602272727215  Z " fill-rule="nonzero" fill="#000000" stroke="none" fill-opacity="0.48627450980392156" transform="matrix(1 0 0 1 458 868 )" />
  </g>
</svg>