<?xml version="1.0" encoding="utf-8"?>
<svg version="1.1" xmlns:xlink="http://www.w3.org/1999/xlink" width="66px" height="15px" xmlns="http://www.w3.org/2000/svg">
  <g transform="matrix(1 0 0 1 -527 -575 )">
    <path d="M 65.30022321428571 6.4453125  C 65.76674107142857 6.7421875  66 7.09375  66 7.5  C 66 7.906249999999998  65.76674107142857 8.257812499999998  65.30022321428571 8.5546875  L 55.871651785714285 14.5546875  C 55.40513392857143 14.851562499999996  54.85267857142858 15  54.214285714285715 15  C 53.57589285714286 15  53.02343750000001 14.851562499999996  52.556919642857146 14.5546875  C 52.09040178571429 14.257812499999998  51.857142857142854 13.906249999999998  51.857142857142854 13.5  L 51.857142857142854 10.5  L 14.142857142857142 10.5  L 14.142857142857142 13.5  C 14.142857142857142 13.906249999999998  13.909598214285714 14.257812499999998  13.443080357142858 14.5546875  C 12.9765625 14.851562499999996  12.424107142857144 15  11.785714285714286 15  C 11.147321428571429 15  10.594866071428571 14.851562499999996  10.128348214285714 14.5546875  L 0.6997767857142857 8.5546875  C 0.23325892857142858 8.257812499999998  0 7.906249999999998  0 7.5  C 0 7.09375  0.23325892857142858 6.7421875  0.6997767857142857 6.4453125  L 10.128348214285714 0.44531249999999967  C 10.594866071428571 0.14843749999999822  11.147321428571429 0  11.785714285714286 0  C 12.424107142857144 0  12.9765625 0.14843749999999822  13.443080357142858 0.44531249999999967  C 13.909598214285714 0.7421874999999994  14.142857142857142 1.0937499999999996  14.142857142857142 1.4999999999999996  L 14.142857142857142 4.500000000000001  L 51.857142857142854 4.500000000000001  L 51.857142857142854 1.4999999999999996  C 51.857142857142854 1.0937499999999996  52.09040178571429 0.7421874999999994  52.556919642857146 0.44531249999999967  C 53.02343750000001 0.14843749999999822  53.57589285714286 0  54.214285714285715 0  C 54.85267857142858 0  55.40513392857143 0.14843749999999822  55.871651785714285 0.44531249999999967  L 65.30022321428571 6.4453125  Z " fill-rule="nonzero" fill="#000000" stroke="none" fill-opacity="0.48627450980392156" transform="matrix(1 0 0 1 527 575 )" />
  </g>
</svg>