<?xml version="1.0" encoding="utf-8"?>
<svg version="1.1" xmlns:xlink="http://www.w3.org/1999/xlink" width="15px" height="66px" xmlns="http://www.w3.org/2000/svg">
  <g transform="matrix(1 0 0 1 -533 -743 )">
    <path d="M 14.5546875 10.128348214285712  C 14.851562500000002 10.594866071428566  15 11.147321428571422  15 11.785714285714288  C 15 12.424107142857139  14.851562500000002 12.976562499999995  14.5546875 13.443080357142856  C 14.2578125 13.90959821428571  13.90625 14.142857142857144  13.5 14.142857142857144  L 10.5 14.142857142857144  L 10.5 51.857142857142854  L 13.5 51.857142857142854  C 13.90625 51.857142857142854  14.2578125 52.090401785714285  14.5546875 52.556919642857146  C 14.851562500000002 53.02343750000001  15 53.57589285714286  15 54.214285714285715  C 15 54.85267857142857  14.851562500000002 55.40513392857142  14.5546875 55.871651785714285  L 8.5546875 65.30022321428571  C 8.2578125 65.76674107142857  7.90625 66  7.5 66  C 7.093750000000001 66  6.742187500000001 65.76674107142857  6.4453125 65.30022321428571  L 0.4453125 55.871651785714285  C 0.14843750000000022 55.40513392857142  0 54.85267857142857  0 54.214285714285715  C 0 53.57589285714286  0.14843750000000022 53.02343750000001  0.4453125 52.556919642857146  C 0.7421875000000004 52.090401785714285  1.0937500000000004 51.857142857142854  1.5 51.857142857142854  L 4.5 51.857142857142854  L 4.5 14.142857142857144  L 1.5 14.142857142857144  C 1.0937500000000004 14.142857142857144  0.7421875000000004 13.90959821428571  0.4453125 13.443080357142856  C 0.14843750000000022 12.976562499999995  0 12.424107142857139  0 11.785714285714288  C 0 11.147321428571422  0.14843750000000022 10.594866071428566  0.4453125 10.128348214285712  L 6.4453125 0.6997767857142878  C 6.742187500000001 0.23325892857143415  7.093750000000001 0  7.5 0  C 7.90625 0  8.2578125 0.23325892857143415  8.5546875 0.6997767857142878  L 14.5546875 10.128348214285712  Z " fill-rule="nonzero" fill="#000000" stroke="none" fill-opacity="0.48627450980392156" transform="matrix(1 0 0 1 533 743 )" />
  </g>
</svg>